<svg fill="none" height="125" viewBox="0 0 660 125" width="660" xmlns="http://www.w3.org/2000/svg"><g fill="#c9362b"><path d="m342 124.9h19.1v-107.7999h-19.1z"/><path d="m497.67 124.77h62.31l18.08-22.6v-16.7599h-18.34v10.0999l-9.16 12.48h-43.23l-9-12.7199v-18.74h80v-30.09l-18.3-29.38h-62.1l-18.22 29.38v53.39l18 24.9399zm.61-64.5799v-10l9.08-16.3h43l9.4 16.27v10z"/><path d="m259.43 124.91h19.1v-63.0599l24.5-27.77h22.11v-16.24h-27.1l-20.46 22.21v-22.97h-18.15z"/><path d="m593.74 124.86h19.1v-63.0597l24.5-27.76h22.1v-16.25h-27.1l-20.45 22.21v-22.97h-18.15z"/><path d="m178.04 124.91h19.09v-63.0599l24.5-27.77h22.11v-16.24h-27.1l-20.46 22.21v-22.97h-18.14z"/><path d="m379.27 17.1001v107.8099h39.4l64.18-107.8099h-20.48l-63.13 105.9899h-1.09v-105.9899z"/><path d="m5.76 60.1899-5.76 16.38h57.28l5.6-16.38z"/><path d="m77.57 76.5703-16.74 48.3397h-20.3l16.74-48.3397z"/><path d="m167.24 124.91-42.81-124.91h-40.89l-20.67 60.19h20.3l20.19-58.52h1.33l42.23 123.24z"/></g></svg>