<svg enable-background="new 0 0 622 215.5" viewBox="0 0 622 215.5" xmlns="http://www.w3.org/2000/svg"><path d="m265.8 23.5h28.9c.2 0 .4.2.4.4v125.1c0 .2-.2.4-.4.4h-28.9c-.2 0-.4-.2-.4-.4v-125.2c0-.2.1-.3.4-.3z"/><path d="m256.1 23.5c.2 0 .3.3.1.4l-38.2 61.8c-.4.6-.4 1.2 0 1.8l38.5 61.3c.2.4.1.5-.1.5h-35.8c-.3 0-.6-.1-.8-.5l-23.1-37.7c-.3-.4-.5-.4-.7 0l-21.8 37.6c-.2.4-.5.5-.9.5h-33.6c-.4 0-.5-.1-.3-.5l39.4-64.7c.4-.7.4-1.4 0-2.1l-34.4-57.9c-.1-.2 0-.5.2-.5h34.6c.3 0 .5.2.7.5l20.9 35.3c.2.4.5.4.7 0l21.5-35.3c.2-.3.4-.4.8-.4z"/><path d="m503.1-12.4 103.8 161.7h-90.1l-34-52.9h-4.4l-2.3-3.5h-40.6z" fill="#fd0"/><path d="m496.6 87.6 39.6 61.7h-126.5l39.6-61.7z"/><path d="m486.2 87.6 39.6 61.7h-126.5l39.6-61.7z" fill="#e73137"/><path d="m128.9 23.5h-26.9c-.4 0-.6.2-.8.5l-80.6 125c-.1.1 0 .4.1.4h32.9c.3 0 .5-.1.7-.3l10.9-17.1c.2-.3.4-.3.7-.3h34.4c.2 0 .4.2.4.4v16.8c0 .2.1.5.3.5h28c.2 0 .3-.2.3-.5v-124.9c0-.3-.2-.5-.4-.5zm-28.2 83.5c0 .1-.1.3-.2.3h-21.4c-.1 0-.2-.1-.1-.3l22.4-36.1c.1-.2.2-.1.2 0z"/><path d="m312 149.4c-.2 0 37.9 0 37.9 0 4.8-.1 9.7-.9 14.2-2.4 17.5-5.6 26.8-22.9 26.8-37.7 0-23.7-18.4-31.9-40.5-41.4-3.8-1.7-8.5-3.9-8.5-9 0-5.4 5.1-8 10.7-8h29.9c.2 0 .4-.2.4-.4v-27.3c0-.2-.2-.3-.4-.3h-31.4c-26.2 0-41.6 15.5-41.6 37.3 0 18.9 12.1 28.2 29.6 35.1 12.3 4.8 20.3 7.1 20.3 17 0 5.3-3.1 10.1-9.6 10.1 0 0-37.5 0-37.8 0s-.3.3-.3.3c0-.2 0 26.1 0 26.3 0 .4.5.4.3.4z"/><path d="m407.2 22.7c-5.8 0-10.5 4.7-10.5 10.5s4.7 10.5 10.5 10.5 10.5-4.7 10.5-10.5-4.7-10.5-10.5-10.5zm0 20c-5.3 0-9.5-4.3-9.5-9.5 0-5.3 4.3-9.5 9.5-9.5s9.5 4.3 9.5 9.5-4.2 9.5-9.5 9.5z"/><path d="m412.1 39.3-2.4-5.7c1.4-.4 2.3-1.7 2.3-3.1 0-1-.5-2.1-1.3-2.7s-1.8-.8-2.8-.8h-4.6v12.3h1.5v-5.3h3.4l2.3 5.3zm-7.3-6.6v-4.4h3.1c.6 0 1.2 0 1.7.4.6.4.9 1 .9 1.7 0 .6-.2 1.2-.6 1.6-.6.6-1.3.7-2.1.7z"/><path d="m45.8 196.3c-3.5 1.8-6.2 2.4-9.9 2.4-9.8 0-14.7-6.2-14.7-12.5 0-6.5 5.5-12.6 15.2-12.6 3.5 0 6.7.7 9.1 2.1v5.5c-2.8-1.5-5.6-2.5-8.7-2.5-5.4 0-9.1 3.1-9.1 7.4 0 4.4 3.7 7.5 9 7.5 3.3 0 5.5-1 9.1-2.7z"/><path d="m82.1 198.7c-9.2 0-14.5-6.3-14.5-12.6 0-5.9 4.9-12.6 14.5-12.6 9.5 0 14.4 6.7 14.4 12.6 0 6.3-5.3 12.6-14.4 12.6zm0-20c-4.8 0-8 3-8 7.5s3.2 7.5 8 7.5 7.9-3 7.9-7.5c.1-4.5-3.1-7.5-7.9-7.5z"/><path d="m139.9 173.9h5.5v24.5h-6.3v-15.3l-6.8 7.7h-1l-6.8-7.7v15.3h-6.3v-24.5h5.5l8.1 9.1z"/><path d="m191.6 173.9h5.5v24.5h-6.3v-15.3l-6.8 7.7h-1l-6.8-7.7v15.3h-6.2v-24.5h5.5l8.1 9.1z"/><path d="m245.2 173.9v13.9c0 8.1-5.7 10.9-12.6 10.9-7.3 0-12.6-3.3-12.6-10.9v-13.9h6.3v14.1c0 3.5 2.6 5.6 6.3 5.6 3.3 0 6.4-1.7 6.4-6.1v-13.6z"/><path d="m293.8 198.4h-5.3l-13.9-15.7v15.7h-6.3v-24.5h5.8l13.5 15v-15h6.3z"/><path d="m323.9 198.4h-6.3v-24.5h6.3z"/><path d="m369.2 196.3c-3.5 1.8-6.2 2.4-9.9 2.4-9.8 0-14.7-6.2-14.7-12.5 0-6.5 5.5-12.6 15.2-12.6 3.5 0 6.6.7 9.1 2.1v5.5c-2.8-1.5-5.6-2.5-8.7-2.5-5.4 0-9.1 3.1-9.1 7.4 0 4.4 3.7 7.5 9 7.5 3.3 0 5.5-1 9.1-2.7z"/><path d="m414.4 198.4h-6.8l-2.1-4.9h-11.3l-1.9 4.9h-6.7l10.2-24.5h7.3zm-14.8-18.6-3.7 9.5h7.8z"/><path d="m451.1 178.4h-9.1v20h-6.3v-20h-9.1v-4.5h24.5z"/><path d="m476.6 198.4h-6.3v-24.5h6.3z"/><path d="m510.1 198.7c-9.2 0-14.5-6.3-14.5-12.6 0-5.9 5-12.6 14.5-12.6s14.4 6.7 14.4 12.6c0 6.3-5.3 12.6-14.4 12.6zm0-20c-4.8 0-8 3-8 7.5s3.2 7.5 8 7.5 8-3 8-7.5-3.2-7.5-8-7.5z"/><path d="m568.7 198.4h-5.3l-13.9-15.7v15.7h-6.3v-24.5h5.8l13.5 15v-15h6.3z"/><path d="m605.3 180.3c-3.7-1.6-5.8-2.2-8-2.2-2.3 0-3.7.8-3.7 2 0 3.7 12.8 2.7 12.8 11.2 0 4.7-4.1 7.4-9.7 7.4-4.4 0-6.6-1.1-9.1-2.4v-5.3c3.6 2.3 5.8 3.2 8.6 3.2 2.4 0 3.7-.8 3.7-2.3 0-4-12.8-2.5-12.8-11.4 0-4.2 3.8-7 9.6-7 2.8 0 5.4.6 8.5 1.9z"/></svg>