<svg enable-background="new 0 0 266.5 79.1" viewBox="0 0 266.5 79.1" xmlns="http://www.w3.org/2000/svg"><path d="m65.6 78.7c-.9-1.2 2.5-2.9 6.6-7.6 2.4-2.9 4.5-6 6.2-9.3 2.2-4.2 3.5-8.9 3.8-13.7.3-6.3-1-12.1-5.3-15.2-5.6-4-16.7 4.1-23.8 9-1.7 1.2-7.1 5-12.2 4.4-4.4-.4-8-3.9-8.5-8.3-.8-7.6 8.8-21.5 5.7-26.9-1.2-2-4.8-2.1-9.1-.9-6.9 2.3-13 6.5-17.5 12.2-5 6.6-2.8 13.9-1.6 16.7 2.3 5.5 6.1 10.3 9.8 14.4 7.6 8.2 15 14 19.8 18.1s8.2 5.9 7.3 7.1-3.7-.9-9.4-4.1c-8.1-4.6-15.6-10.1-22.5-16.4-5-4.6-9.1-10-12.2-16-1.6-3.2-5.9-13.9 1.4-24.6 2.5-3.7 5.6-6.9 9.1-9.5s18.5-12.4 29-5.8c2.6 1.8 4.4 4.5 5 7.6 2.1 9.7-4.3 19.4-5.4 25.3-.3 1.3.5 2.3 2.5 1.3 4.3-2.3 10.4-6.3 13.9-8.3 11.3-6.4 19-6.7 25.3-.1 1.3 1.3 6.7 8.4 5.1 20.7-.8 5.6-2.8 10.9-5.9 15.7-2.2 3.5-5 6.6-8.2 9.3-5.1 4.2-8.2 5.8-8.9 4.9z" fill="#2ca3e8"/><g fill="#636463"><path d="m99.6 24.5c-.1-.7.4-1.3 1-1.4h.3 1.3c.6-.1 1.2.4 1.3 1v.3 8.4c0 .6 0 1.2-.1 1.8h.1c1.4-2.4 4-3.9 6.8-3.8 5.5 0 9 4.4 9 10.8 0 6.6-4 10.9-9.4 10.9-2.8.1-5.3-1.5-6.6-3.9h-.1c.1.4.1.8.1 1.2v1c0 .7-.5 1.2-1.3 1.2h-1c-.7.1-1.3-.4-1.3-1 0-.1 0-.2 0-.3zm9.6 24.6c3.3 0 6-2.7 6-7.4 0-4.5-2.4-7.4-5.8-7.4-3.1 0-6 2.2-6 7.4 0 3.8 1.9 7.4 5.8 7.4"/><path d="m132.6 30.9c6.2 0 11.2 4.5 11.2 10.8.2 6.2-4.6 11.3-10.8 11.5s-11.3-4.6-11.5-10.8 4.6-11.3 10.8-11.5zm0 18.2c3.9 0 7.1-3.2 7.1-7.2 0-.1 0-.2 0-.3.1-3.9-2.9-7.2-6.8-7.4s-7.2 2.9-7.4 6.8v.5c-.1 4 2.9 7.3 6.9 7.4.1.2.1.2.2.2"/><path d="m146.4 32.7c-.1-.7.4-1.3 1.1-1.3h.3 1.1c.7-.1 1.3.4 1.3 1v.3 1.8c0 .4 0 .8-.1 1.2h.1c1.5-3 4.5-4.9 7.9-4.9 4.9 0 7.1 2.7 7.1 7.9v11.9c.1.7-.4 1.3-1 1.3-.1 0-.2 0-.3 0h-1.3c-.7.1-1.3-.4-1.4-1.1 0-.1 0-.2 0-.3v-11c0-2.9-.6-5.2-3.9-5.2-4 0-6.9 3.3-6.9 7.6v8.5c.1.7-.4 1.3-1 1.4-.1 0-.2 0-.4 0h-1.3c-.7.1-1.3-.4-1.4-1.1 0-.1 0-.2 0-.3z"/><path d="m169.8 34.8h-1.4c-.7.1-1.2-.4-1.3-1.1 0-.1 0-.2 0-.3v-.5c-.1-.7.4-1.3 1.1-1.4h.3 1.5v-4.5c-.1-.7.4-1.3 1.1-1.4h.3 1.2c.7-.1 1.3.4 1.3 1v.3 4.5h3.6c.7-.1 1.3.4 1.4 1.1v.3.5c.1.7-.4 1.3-1 1.3-.1 0-.2 0-.3 0h-3.6v9.4c0 3.9 2.4 4.5 3.9 4.7 1.1.1 1.4.4 1.4 1.3v.9c0 .9-.5 1.3-1.6 1.3-4.1 0-7.7-2.4-7.7-7.6v-9.8z"/><path d="m191 30.9c6.2 0 11.2 4.5 11.2 10.8.2 6.2-4.6 11.3-10.8 11.5s-11.3-4.6-11.5-10.8 4.6-11.3 10.8-11.5zm0 18.2c3.9 0 7.1-3.2 7.1-7.2 0-.1 0-.2 0-.3.1-3.9-2.9-7.2-6.8-7.4s-7.2 2.9-7.4 6.8v.5c-.1 4 2.9 7.3 6.9 7.4.1.2.1.2.2.2"/><path d="m204.8 32.7c-.1-.7.4-1.3 1-1.3h.3 1.3c.6-.1 1.2.4 1.3 1v.3 11c0 2.9.6 5.2 3.9 5.2 4.3 0 6.8-3.7 6.8-7.8v-8.3c-.1-.7.4-1.3 1-1.3h.3 1.3c.7-.1 1.3.4 1.3 1.1v.3 18c.1.7-.4 1.3-1.1 1.4-.1 0-.2 0-.3 0h-1.1c-.7.1-1.3-.4-1.4-1 0-.1 0-.2 0-.3v-1.8c0-.4 0-.8.1-1.2h-.1c-1.4 2.9-4.4 4.8-7.7 4.9-4.7 0-7-2.5-7-7.9z"/><path d="m237.4 30.9c2.5-.1 4.9.7 6.8 2.2.6.3.7 1 .4 1.6 0 .1-.1.2-.2.2l-.4.6c-.5.7-1.1.8-1.9.3-1.3-1-3-1.5-4.6-1.6-3.9-.1-7.1 3-7.2 6.9v.5c-.2 4 2.9 7.3 6.9 7.4h.4c1.9 0 3.8-.7 5.3-1.9.5-.4 1.2-.4 1.6 0 .1.1.2.2.2.3l.3.6c.4.5.3 1.3-.3 1.7 0 0-.1.1-.1.1-2.1 1.7-4.7 2.6-7.4 2.5-6.5 0-11-4.6-11-10.8-.1-5.9 4.5-10.7 10.4-10.8.4.2.6.2.8.2"/><path d="m247.8 24.5c-.1-.7.4-1.3 1-1.4h.3 1.3c.7-.1 1.2.4 1.3 1.1v.3 9.4c0 .6 0 1.2-.1 1.7h.1c1.5-2.9 4.5-4.8 7.7-4.7 4.9 0 7.1 2.6 7.1 7.9v11.9c.1.7-.4 1.3-1.1 1.3-.1 0-.2 0-.3 0h-1.3c-.7.1-1.3-.4-1.4-1 0-.1 0-.2 0-.3v-11c0-2.9-.6-5.2-3.9-5.2-4 0-6.9 3.3-6.9 7.7v8.5c.1.7-.4 1.3-1 1.3-.1 0-.2 0-.3 0h-1.3c-.7.1-1.3-.4-1.4-1 0-.1 0-.2 0-.3z"/></g></svg>