<svg viewBox="0 0 399.24 100.5" xmlns="http://www.w3.org/2000/svg"><circle cx="49.04" cy="49.97" fill="#dd0332" r="33.48"/><path d="m50.25 100.5a50.25 50.25 0 0 0 50-44.91 5.4 5.4 0 0 0 0-10.68 50.25 50.25 0 1 0 -50 55.59zm0-98.5a48.27 48.27 0 0 1 48 43 5.41 5.41 0 0 0 0 10.56 48.27 48.27 0 1 1 -48-53.56z" fill="#fff"/><path d="m85.22 67.83h-35.54a9.47 9.47 0 0 1 -8.14-3.83c-1.88-2.57-2.82-6.17-2.82-11.67s.94-9.1 2.82-11.68a9.49 9.49 0 0 1 8.14-3.86h35.54 1a39 39 0 0 0 -35.76-23.22 11.24 11.24 0 0 0 -11.29 10.34q-1.17 11.31-8.23 12.88c-1.29.35-5.06.88-11.31.88s-8.2 10.55-8.2 14.63 1.82 14.63 8.2 14.63 10 .53 11.31.88q7.06 1.57 8.23 12.88a11.24 11.24 0 0 0 11.29 10.31 39.06 39.06 0 0 0 35.75-23.13c-.32-.02-.64-.04-.99-.04z"/><g fill="#fff"><path d="m85.22 65.86h-35.54a9.49 9.49 0 0 1 -8.14-3.86c-1.88-2.57-2.82-6.17-2.82-11.68s.94-9.1 2.82-11.68a9.49 9.49 0 0 1 8.14-3.86h35.54 1a39 39 0 0 0 -35.76-23.18 11.24 11.24 0 0 0 -11.29 10.34q-1.17 11.3-8.23 12.88c-1.29.35-5.06.87-11.31.87s-8.2 10.56-8.2 14.64 1.82 14.67 8.2 14.67 10 .52 11.31.88q7.06 1.53 8.23 12.83a11.23 11.23 0 0 0 11.29 10.34 39.06 39.06 0 0 0 35.75-23.16c-.32-.02-.64-.03-.99-.03z"/><path d="m225.38 31.21q-6.39-6.57-18.09-6.56-12.19 0-19.08 7t-6.88 19.08q0 11.55 6.4 18.33t18.06 6.78q12.28 0 19.14-7.34t6.85-19.38q-.01-11.34-6.4-17.91zm-5.38 36.36q-4.17 5.49-12.91 5.5t-13.53-6.07q-4.56-6-4.56-17.42 0-11.16 4.06-16.66t13-5.49q9.22 0 13.64 5.93t4.43 17q-.02 11.72-4.13 17.21z"/><path d="m393.11 31.11q-6.14-5.57-18.32-5.56c-2.28 0-4.49.06-6.66.19s-4.39.19-6.72.19q-4.25 0-8.74-.13l.07 1.5 4.32 1.36a1.19 1.19 0 0 1 .83 1.19c0 .76 0 1.62.06 2.57s0 2 0 3.21v28.25 3.82s0 2.19-.06 3.11a1.15 1.15 0 0 1 -.94 1.08l-4.28 1.29.14 1.5q4.43-.14 8.64-.13c2.13 0 4.09 0 5.85.1s3.77.09 6 .09q12.29 0 19.1-7.12t6.81-20q.03-10.95-6.1-16.51zm-6.34 35.37q-4.8 5.43-14 5.42c-1.33 0-2.65 0-4-.08s-2.65-.19-4-.37v-42.6c1.61-.12 3-.2 4.3-.25s2.42-.07 3.47-.07q9.9 0 14.45 5.24t4.57 16.11q.02 11.19-4.79 16.6z"/><path d="m252.25 74.68-.07-1.56-4.18-1.22a1.12 1.12 0 0 1 -.87-1.19q-.07-2.71-.07-6.83v-28.15l31.32 39.08 2.92-.28v-38.9c0-2.33 0-4.25.07-5.78a1.18 1.18 0 0 1 .84-1.19l4.39-1.35-.14-1.5c-2.91.08-5.29.13-7.15.13s-4.23-.05-7.21-.13l.07 1.6 4.11 1.18a1.14 1.14 0 0 1 .9 1.09c0 1.62.07 3.56.07 5.81v26.83l-29.25-36.51c-1.07.08-2.12.13-3.17.13-1.74 0-4.11-.05-7.1-.13l.07 1.5 4.31 1.35a1.2 1.2 0 0 1 .84 1.19c.05 1.53.07 3.46.07 5.78v28.26c0 2.73 0 5-.07 6.93a1.17 1.17 0 0 1 -.95 1.08l-4.28 1.29.14 1.5q4.48-.14 7.21-.14c1.93 0 4.28.05 7.18.13z"/><path d="m340.57 32.34c0-1 0-1.85.05-2.66a1.08 1.08 0 0 1 .9-1.08l4.32-1.29-.14-1.5c-3 .08-5.85.13-8.64.13s-5.65-.05-8.64-.13l.07 1.5 4.32 1.35a1.2 1.2 0 0 1 .83 1.19q0 1.16.06 2.58v3.2 28.26 3.81s0 2.19-.06 3.11a1.14 1.14 0 0 1 -.94 1.08l-4.28 1.3.14 1.49c2.95-.08 5.83-.13 8.64-.13s5.65 0 8.64.13l-.07-1.49-3.94-1.19c-.79-.21-1.19-.61-1.22-1.19 0-.93 0-2-.05-3.1s0-2.4 0-3.8v-28.42c-.01-1.13-.01-2.18.01-3.15z"/><path d="m313.15 70.31c-1.94 1.54-4.64 2.3-8.1 2.3a20.49 20.49 0 0 1 -7.56-1.46l-2.44-9.89-1.56.24-1.71 11.85.21.28a45.69 45.69 0 0 0 12.26 1.9c5.73 0 10.23-1.22 13.47-3.66s4.85-6 4.85-10.6a11.32 11.32 0 0 0 -1.09-5.12 11.87 11.87 0 0 0 -2.93-3.76 21.32 21.32 0 0 0 -4.09-2.74c-1.51-.78-3.07-1.51-4.67-2.21s-2.88-1.32-4.25-2a19.66 19.66 0 0 1 -3.68-2.3 9.9 9.9 0 0 1 -2.57-3 7.94 7.94 0 0 1 -1-4 7.56 7.56 0 0 1 2.73-6.2 11.29 11.29 0 0 1 7.33-2.23 21.5 21.5 0 0 1 6.77 1.29l2.26 8.67 1.4-.24 2.05-10.89-.24-.24a54.52 54.52 0 0 0 -11.53-1.3q-7.8 0-12.52 3.46a11.37 11.37 0 0 0 -4.72 9.76 12.75 12.75 0 0 0 1.11 5.49 11.93 11.93 0 0 0 3 4 22 22 0 0 0 4.16 2.84c1.53.81 3.11 1.56 4.74 2.27 1.43.65 2.83 1.31 4.18 2a21.72 21.72 0 0 1 3.6 2.21 9.37 9.37 0 0 1 2.53 2.91 8 8 0 0 1 .94 3.92 7.85 7.85 0 0 1 -2.93 6.45z"/><path d="m175.42 71-.42-1.55a35.53 35.53 0 0 1 -11.66 2.13q-9.87 0-15.44-6.06t-5.54-16.22c0-6.35 1.62-11.49 4.88-15.47s7.72-5.95 13.41-5.95a32.5 32.5 0 0 1 7.83 1.12l2.52 9.12 1.39-.21 2.16-11.24-.24-.28a53.42 53.42 0 0 0 -12.02-1.39q-12.27 0-19.86 7t-7.59 18.91q0 11.22 6.89 18.08t18.15 6.86a26.59 26.59 0 0 0 15.54-4.85z"/></g></svg>