<svg viewBox="0 0 1701.52 908.11" xmlns="http://www.w3.org/2000/svg" xmlns:xlink="http://www.w3.org/1999/xlink"><clipPath id="a" transform="translate(-35.41 -26.92)"><path d="m0 0h1995.05v961.95h-1995.05z"/></clipPath><g clip-path="url(#a)"><g fill="#fdc500"><path d="m599.26 26.92c-40.62 0-60.76 30.21-60.76 67.7 0 30.9 8 51 38.54 63.54l25.34 10.41c17.36 7 20.49 11.11 20.49 37.5 0 22.57-1.74 36.8-25.7 36.8-18 0-25-12.5-25-25.34v-11.11h-35.4v13.19c0 33.33 26 58.67 60.4 58.67 45.83 0 61.11-30.9 61.11-72.56 0-36.11-5.9-55.9-37.15-67.7l-27.08-10.76c-18.4-7.29-20.14-13.89-20.14-33 0-16.31 4.52-31.94 24-31.94 18 0 25 13.55 25 29.86v8h35.41v-17.36c-.04-27.43-23.65-55.9-59.06-55.9z" transform="translate(-35.41 -26.92)"/><path d="m636.73 35.41h40.97v213.87h35.41v-213.87h40.97v-33.33h-117.35z"/><path d="m913.67 26.92c-40.62 0-60.76 30.21-60.76 67.7 0 30.9 8 51 38.54 63.54l25.35 10.41c17.36 7 20.48 11.11 20.48 37.5 0 22.57-1.73 36.8-25.69 36.8-18.06 0-25-12.5-25-25.34v-11.11h-35.41v13.19c0 33.33 26 58.67 60.41 58.67 45.83 0 61.11-30.9 61.11-72.56 0-36.11-5.91-55.9-37.15-67.7l-27.08-10.76c-18.41-7.29-20.14-13.89-20.14-33 0-16.31 4.51-31.94 23.95-31.94 18.06 0 25 13.55 25 29.86v8h35.42v-17.36c0-27.43-23.62-55.9-59.03-55.9z" transform="translate(-35.41 -26.92)"/><path d="m1393 29h-52.42v247.2h49.3c41.66 0 65.27-21.87 65.27-67.7v-115.61c-.04-39.89-22.26-63.89-62.15-63.89zm26.73 183c0 21.18-7.63 30.9-27.42 30.9h-16.33v-180.57h16.33c20.83 0 27.42 11.11 27.42 30.56z" transform="translate(-35.41 -26.92)"/><path d="m317.08 26.92c-28.82 0-62.14 20.14-62.14 60.41v130.54c0 40.27 33.32 60.41 62.14 60.41s64.92-20.14 64.92-60.41v-33h-35.42v33c0 17-15.27 25-28.11 25s-28.12-8-28.12-25v-52.77h91.65v-77.77c0-40.27-36.11-60.41-64.92-60.41zm29.5 106.93h-56.23v-46.52c0-17 15.27-25 28.12-25s28.11 8 28.11 25z" transform="translate(-35.41 -26.92)"/><path d="m1261.76 26.92c-28.82 0-62.14 20.14-62.14 60.41v130.54c0 40.27 33.32 60.41 62.14 60.41s64.91-20.14 64.91-60.41v-33h-35.41v33c0 17-15.27 25-28.11 25s-28.12-8-28.12-25v-52.77h91.64v-77.77c0-40.27-36.09-60.41-64.91-60.41zm29.5 106.93h-56.26v-46.52c0-17 15.27-25 28.12-25s28.11 8 28.11 25z" transform="translate(-35.41 -26.92)"/><path d="m1531.11 26.92c-28.82 0-62.14 20.14-62.14 60.41v130.54c0 40.27 33.32 60.41 62.14 60.41s64.89-20.14 64.89-60.41v-33h-35.41v33c0 17-15.27 25-28.12 25s-28.11-8-28.11-25v-52.77h91.64v-77.77c0-40.27-36.08-60.41-64.89-60.41zm29.5 106.93h-56.23v-46.52c0-17 15.27-25 28.11-25s28.12 8 28.12 25z" transform="translate(-35.41 -26.92)"/><path d="m1672 26.92c-28.82 0-62.14 20.14-62.14 60.41v188.87h35.41v-188.87c0-17 15.27-25 28.12-25s28.11 8 28.11 25v188.87h35.41v-188.87c.02-40.27-36.07-60.41-64.91-60.41z" transform="translate(-35.41 -26.92)"/><path d="m1150.35 217.88c0 17-10.38 25-23.23 25s-23.22-8-23.22-25v-188.88h-35.48v188.88c0 17-10.38 25-23.23 25s-23.22-8-23.22-25v-188.88h-35.41v188.88c0 40.27 31.2 60.41 60 60.41 14.79 0 29.45-5.35 40.24-16a62 62 0 0 0 41.69 16c28.82 0 57.25-20.14 57.25-60.41v-188.88h-35.41z" transform="translate(-35.41 -26.92)"/><path d="m460.76 26.92c-28.81 0-64.91 20.14-64.91 60.41v33h35.42v-33c0-17 15.26-25 28.11-25s28.11 8 28.11 25v52.77h-25.57a66.08 66.08 0 0 0 -66.07 66.07v11.7c0 40.28 36.1 60.41 64.91 60.41s62.14-20.13 62.14-60.41v-130.54c0-40.27-33.32-60.41-62.14-60.41zm-1.38 216c-12.85 0-28.11-8-28.11-25v-14a32.52 32.52 0 0 1 32.52-32.52h23.7v46.52c0 16.97-15.27 24.95-28.11 24.95z" transform="translate(-35.41 -26.92)"/></g><path d="m1736.93 665.33v-185.33c0-96-86-143.94-154.67-143.94s-148.07 48-148.07 143.94v311.08c0 96 79.39 143.95 148.07 143.95s154.67-48 154.67-143.95v-78.52h-84.38v78.52c0 40.54-36.38 59.57-67 59.57s-67-19-67-59.57v-125.75zm-151.37-244.87c30.61 0 67 19 67 59.56v110.86h-134v-110.88c0-40.52 36.44-59.54 67-59.54z" fill="#312783" transform="translate(-35.41 -26.92)"/><path d="m1258.13 336.08c-35.22 0-70.18 12.66-95.9 37.9-27.41-25.24-64.1-37.9-99.32-37.9-68.68 0-136.42 48-136.42 143.94v450.05h84.37v-450.07c0-40.54 24.74-59.56 55.35-59.56s55.33 19 55.33 59.56v450.07h84.55v-450.07c0-40.54 24.74-59.56 55.35-59.56s55.33 19 55.33 59.56v450.07h84.39v-450.07c0-95.94-74.36-143.92-143.03-143.92z" fill="#312783" transform="translate(-35.41 -26.92)"/><path d="m745.39 336.08c-68.66 0-154.68 48-154.68 144v78.52h84.39v-78.6c0-40.54 36.38-59.57 67-59.57s67 19 67 59.57v125.78h-60.95a157.43 157.43 0 0 0 -157.44 157.43v27.88c0 96 86 143.94 154.68 143.94s148.07-48 148.07-143.94v-311.09c0-95.94-79.4-143.92-148.07-143.92zm-3.31 514.57c-30.6 0-67-19-67-59.56v-33.36a77.49 77.49 0 0 1 77.49-77.5h56.49v110.86c.02 40.54-36.37 59.56-66.98 59.56z" fill="#312783" transform="translate(-35.41 -26.92)"/><path d="m403 336.08c-68.68 0-148.07 48-148.07 144v133.92h-112.72a15.42 15.42 0 0 1 0-30.84h12a73.68 73.68 0 0 0 0-147.36h-118.8v58.3h118.81a15.42 15.42 0 0 1 0 30.84h-12a73.68 73.68 0 0 0 0 147.36h112.72v118.79c0 96 79.39 143.94 148.07 143.94s154.67-48 154.67-143.94v-178.32h-195.06v60.47h110.68v117.85c0 40.54-36.38 59.56-67 59.56s-67-19-67-59.56v-311.09c0-40.54 36.39-59.57 67-59.57s67 19 67 59.57v78.52h84.38v-78.52c0-95.94-86.01-143.92-154.68-143.92z" fill="#312783" transform="translate(-35.41 -26.92)"/><path d="m441 513.2a17.52 17.52 0 1 0 -17.52-17.52 17.51 17.51 0 0 0 17.52 17.52z" fill="#312783" transform="translate(-35.41 -26.92)"/><path d="m388.86 495.68a17.52 17.52 0 1 0 -17.51 17.52 17.52 17.52 0 0 0 17.51-17.52z" fill="#312783" transform="translate(-35.41 -26.92)"/><path d="m406.19 548a17.52 17.52 0 1 0 -17.52-17.52 17.52 17.52 0 0 0 17.52 17.52z" fill="#312783" transform="translate(-35.41 -26.92)"/><path d="m406.19 478.36a17.52 17.52 0 1 0 -17.52-17.52 17.53 17.53 0 0 0 17.52 17.52z" fill="#312783" transform="translate(-35.41 -26.92)"/><path d="m356.49 694.29v31.89h-31.88v28.92h31.88v31.89h28.93v-31.89h31.88v-28.92h-31.88v-31.89z" fill="#312783"/></g></svg>