<svg enable-background="new 0 0 1187.2 630.7" viewBox="0 0 1187.2 630.7" xmlns="http://www.w3.org/2000/svg"><g fill="#e6007e"><path d="m335.2 399.3h-128.5c-41.2 0-63.5-28.5-54.3-61.1 5.5 3.5 11.4 6.5 17.5 9.2 20.7 9.9 44 15.6 68.8 15.6 84.5 0 152.9-64.9 152.9-144.9 0-30.6-10.1-59-27.2-82.4h12.6l35.3-51.7h-116.1c-17.8-6.9-37.2-10.7-57.6-10.7-84.4 0-153 64.9-153 144.9 0 28.7 8.9 55.4 24.1 77.9-23.7 27-22.5 58.1-22.5 64.4 0 56.4 44.6 112.9 116.4 112.9h131.5c18.3 0 33.3 11.9 33.3 29.3s-15 31.7-33.3 31.7l-51.4.1 46.8 70.6h4.5c57.4 0 104-46 104-102.4.2-56.4-41.3-103.4-103.8-103.4zm-96.6-265c47.8 0 86.5 37.5 86.5 83.9 0 46.3-38.7 83.9-86.5 83.9s-86.5-37.6-86.5-83.9c0-46.4 38.7-83.9 86.5-83.9z"/><path d="m821.7 195v167.5h-65.2v-154.5z"/><path d="m827.4 111.8c0 21.2-17.1 38.4-38.4 38.4-21.2 0-38.3-17.2-38.3-38.4s17.1-38.4 38.3-38.4c21.3.1 38.4 17.3 38.4 38.4z"/><path d="m651.2 93.7c-22.4-12.4-47.7-19.7-73.4-20.2-49-1.1-94.6 18.8-125.3 57-19.8 24.6-31.3 56.1-31.3 87.8 0 31.6 11.1 62.4 30.8 87.1 28.8 36 66.9 57.1 112.3 57.1 50.1 0 77.3-19.6 86.9-26.5v26.9h65.5v-92.2c0-33.1 0-66.2 0-99.4v-87.3h-65.4s0 9.7-.1 9.7zm-77 208.1c-24.3 0-48.3-10.1-64.7-28.2-36.6-40.4-24.2-104.2 23.4-129.6 12.3-6.4 26.3-10.1 41.3-10.1 27.3 0 53.4 13.6 69.7 35.5 16.4 22.1 21.3 51.3 11.5 77.2-11.9 31.7-43.2 53.2-76.7 55-1.5.1-3 .2-4.5.2z"/><path d="m1090 93.7c-22.4-12.4-47.7-19.7-73.4-20.2-49-1.1-94.6 18.8-125.3 57-19.8 24.6-31.3 56.1-31.3 87.8 0 31.6 11.1 62.4 30.8 87.1 28.8 36 66.9 57.1 112.3 57.1 50.1 0 77.3-19.6 86.9-26.5v26.9h65.5v-92.2c0-33.1 0-66.2 0-99.4v-87.3h-65.4s0 9.7-.1 9.7zm-77.1 208.1c-24.3 0-48.3-10.1-64.7-28.2-36.6-40.4-24.2-104.2 23.4-129.6 12.3-6.4 26.3-10.1 41.3-10.1 27.3 0 53.4 13.6 69.7 35.5 16.4 22.1 21.3 51.3 11.5 77.2-11.9 31.7-43.2 53.2-76.7 55-1.4.1-2.9.2-4.5.2z"/></g></svg>