<svg viewBox="0 0 835.64 696.93" xmlns="http://www.w3.org/2000/svg"><g fill="#231f20" transform="translate(-175.88 -74.4)"><path d="m591.75 703.17c-.06.07-41.75 7.9-41.68 7.84 0-.4 0-80.25 0-80.47s-23.4-68.77-23.32-68.84c0 50.65-.08 102.52-.08 153.64-.22.23-44.15 8.23-44.15 8.08 0-89 0-179 0-267.79 0-.1 38.29-7.13 38.29-7.22 8.94 33.59 29.19 101.17 29.34 101.12 0 .17-.09-106.59 0-106.59-.09 0 41.5-7.6 41.58-7.69 0 88.67.02 179.14.02 267.92z"/><path d="m399.67 739-44.07 8.18c-.05-.06 0-160.52 0-237.48 0-19.71 11.84-32.83 31.13-36.34q23.46-4.26 46.88-8.68c18.33-3.45 30.68 6.74 30.71 25.39.1 76.83.62 236.56.7 236.56-.08 0-44.63 8.3-44.46 8.3 0-44.8-.12-89.39-.12-134.91l-20.75 11.28q0 63.38-.02 127.7zm.33-236.7v76.1l19.89-10.88v-68.83z"/><path d="m680.66 136.05c26.53-4.67 52.18-9.72 78.78-14.43 14.77-2.62 29.8 8.08 29.73 23.39-.12 22.63 0 61.23-.07 68.52-.15 13.54-12 22.77-18.46 26.61 2.76.93 18.32 7.08 18.32 21.62 0 35.86.06 56 .06 89.89 0 19.69-14 32.74-29.92 35.7-25.29 4.71-78.44 14.62-78.44 14.6zm43.45 130.39v93c-.11-.11 20.88-3.94 21-4.05v-99.3c-.2.06-21.26 10.53-21 10.35zm-.05-104.88v73.3c-.09 0 20.51-11.37 20.5-11.44s0-65.53 0-65.53-20.56 3.64-20.5 3.67z"/><path d="m553.74 425.49v-266c5.27-1 58.63-10.87 80.27-14.57 15-2.57 28.46 7.34 28.46 22.55 0 1.85-.21 139 .25 205.8.13 18.36-12.22 34.24-33.34 38.18-23.6 4.42-75.67 14.07-75.64 14.04zm44.6-240.49v197.87s19.6-3.78 19.69-3.78v-197.87c-.03.09-19.69 3.78-19.69 3.78z"/><path d="m834.52 658.11s-44.67 8.27-44.63 8.23v-134.34l-20.49 11.07v127.1s-44.09 8.21-44.11 8.26.18-225.45.2-237.17c0-19.25 11.72-33.08 30.72-36.41 16-2.82 32.57-6.21 48.59-9.2 16.61-3.09 29.26 8.17 29.29 25.05.14 65.24.43 235.3.43 237.41zm-64.91-147.69 19.92-10.87v-69.55l-19.92 3.72z"/><path d="m427.78 315.43c0-33.55.45-67.12-.17-100.66-.38-20.23 14.7-34.35 32.09-37.52 16.38-3 32.1-5.95 48.13-8.86 16.39-3 29.13 7.41 29.26 24.3.18 23 0 46.09 0 69.13 0 44.87-.38 89.75.19 134.62.23 18.49-12 34.35-32.19 38-16.35 2.95-32.67 6.39-49 9.22-13.09 2.28-24.09-4.06-27.37-16.35a38.82 38.82 0 0 1 -.9-10q-.09-50.95-.04-101.88zm44-107v198s20.3-3.79 20.37-3.79v-198c-.09.11-20.42 3.79-20.35 3.79z"/><path d="m410.8 319.08c0 33.83-.46 67.67.16 101.48.39 20.86-16.15 35.49-31.58 37.56-15.59 2.1-31 5.53-46.5 8.39-13.46 2.48-23.54-1.27-28.35-11.38a30.81 30.81 0 0 1 -2.93-12.8c-.18-69.14-.18-137.21-.09-206.35 0-16.76 11.55-31.5 28-34.53 18.1-3.32 35.88-6.76 54.49-10.09 14-2.51 25.89 8.2 26.67 22.46.12 2.18.13 71.97.13 105.26zm-45 106.85v-197.88l-20 3.9v197.7c.03.08 20.04-3.65 20.01-3.72z"/><path d="m345.41 749s-39.85 7.33-39.81 7.33c-9.28-42.33-18.9-86.33-28.26-129.08-.37.38-6.07 5.71-9.2 8v128.08c-.26 0-43.22 8-43.19 8v-267.79c-.1-.11 42.87-8.09 42.9-8.09v106.72c0 .26 10.5-8.07 10.57-8.14 6.7-32.43 23.1-104.81 23.18-104.9 15-2.72 29.56-5.62 45.75-8.56 0 .1-.08 7.18 0 7.31-.06.06-8 16.45-8 16.45s-18.91 76.95-23.26 96c-2.56 11.15-14.4 15.1-14.4 15.1a28.75 28.75 0 0 1 19.35 21.73c.14.5 24.36 111.84 24.37 111.84z"/><path d="m285.22 475.12c-13.76 2.71-27 4.74-41.31 7.55 1.91-4.21 3.42-8.53 4.93-11.84-.21-.13-12.08 14.37-40.54 17.94-22.88 2.86-32.25-6.57-32.28-23-.11-69.7-.15-138.33-.14-208 0-14.6 12.56-29.9 27.62-32.91q27.52-5.5 55.3-9.85a22.45 22.45 0 0 1 26.28 21.59c.48 15.2.11 29.38.11 45-.13.18-41.14 22.22-41.27 22.09v-53c-8.9 1.64-17.06 3.19-25.49 4.75v197.85s25-4.64 25.13-4.64v-99.12l-11.29-7.84v-3.69l53-29z"/><path d="m608.17 600.72 40.68-23v82.07l18.56-3.61c.1-1.39.22-58.72.18-86.22 0-6.6-1.83-8.21-8.32-7.29-5.47.78-10.91 1.78-16.39 2.5-17.65 2.33-31-7.16-32.78-24.81-1.41-13.63-.42-65-.66-76.07-.44-19.94 9.68-34.09 29.34-37.92 13.23-2.58 26.46-5.15 39.76-7.27 23.49-3.84 30.62 14.69 30.85 25.26.37 17.24.1 32.07.1 49.89l-37.18 20.67v-63.11c-7 1.33-14.34 2.52-20.72 3.73-.14 1.24-.21 44.38-.1 65.54 0 6.22 3 8 9.2 7.26 4-.49 8-1.09 12-1.82 23.11-4.24 36.32 6.21 36.92 29.73.36 13.88 0 77.59-.06 94.44 0 18.53-12.25 33-30.43 36.33-14.31 2.59-28.55 5.68-42.92 7.87-16.56 2.52-27.92-7.48-28-24.13-.11-22.9-.03-47.24-.03-70.04z"/><path d="m952.43 449.73-37 20.46v-63.84c-7.07 1.34-14.35 2.54-20.95 3.8 0 6.82.21 50.14.31 65.38 0 7.53 2.89 9 10.33 7.86 5.85-.92 11.72-1.79 17.61-2.47 14.77-1.71 25.83 6 28.61 20.53 1.2 6.3 1.18 13.11 1.2 19.54.06 27-.17 54.74-.32 81.78-.28 20.1-12.18 36.3-31.53 39.26-14.11 2.15-28.09 5.16-42.15 7.64-13.72 2.42-26.88-7.43-26.88-21.2 0-24.09.52-72.28.7-73.26l39.57-22.38v81.78l19.07-3.78c0-8.79-.17-65.34-.25-85.29 0-7.28-1.46-8.51-8.67-7.62s-14.71 2.49-22.06 2.43c-15.42-.14-27.02-10.35-27.02-26.46 0-18.77.15-70.73.13-75.18-.07-17.13 10.87-34.17 27.74-37.15 13.54-2.39 27-4.94 40.54-7.52 19.47-3.76 31 12 31 25.95.08 18.01.02 31.24.02 49.74z"/><path d="m914.18 358.29v-265.52c-.29.13 97.05-18.15 97.34-18.37-.54.54-10 37.74-10 36.35-14.62 2.64-29.16 5.69-43.82 8.33v69.12c0 .11 31.87-5.95 32-6.07v34.26l-32 6v93.61l43.87-7.91v33.89c-28.93 5.2-57.85 10.95-87.39 16.31z"/><path d="m792.57 115c-.16 0 43.48-8 43.32-8.11 4.48 37.17 9 66.23 13.39 102.83 0 0 .2-.07.2-.09s7.65-68.61 10.91-107.12c-.16.16 43.48-8.12 43.32-8.12-.77 4.44-32 176.73-32.06 179-.31 6.74-1 91.16-1.11 93l-40.88 7.47c0-1.91.55-61.18-.08-92.3-.2-9.56-35.32-159.34-37.01-166.56z"/><path d="m752 736.79a14.5 14.5 0 0 0 -8.69-3.11c-4.34 0-7 2.23-7 5.57 0 2.06 1.17 3.7 3.7 5.28l6.92 4.34c4.93 3.11 6.75 6.11 6.75 10.27 0 5.69-4.17 10.86-12.62 10.86a21.69 21.69 0 0 1 -9.79-2.41v-5.92a15.32 15.32 0 0 0 9.68 3.57c4.81 0 7.39-2.75 7.39-5.86 0-2.12-1.41-4-4.34-5.87l-6.87-4.34c-4.57-2.82-6.22-5.81-6.22-9.8 0-5.11 3.47-10.45 12.5-10.45a17.16 17.16 0 0 1 8.59 2.18z"/><path d="m767.89 734.32h-10.68v-4.81h26.29v4.81h-10.56v35.09h-5.05z"/><path d="m818.23 729.51v25.64c0 9.1-5.57 14.85-14.43 14.85s-14.49-5.75-14.49-14.85v-25.64h5v26c0 5.7 3.7 9.57 9.45 9.57s9.39-3.87 9.39-9.57v-26z"/><path d="m828.15 729.51h14.08c11.91 0 19.48 8.27 19.48 20s-7.57 19.95-19.48 19.95h-14.08zm5.05 4.81v30.28h9c8.92 0 14.32-6.4 14.32-15.14s-5.4-15.14-14.32-15.14z"/><path d="m869.52 729.51h5v39.9h-5z"/><path d="m902.78 728.92a20.54 20.54 0 1 1 -20.53 20.54 20.12 20.12 0 0 1 20.53-20.54zm0 36.09a15.55 15.55 0 1 0 -15.25-15.55 15.16 15.16 0 0 0 15.25 15.54z"/><path d="m949.67 736.79a14.5 14.5 0 0 0 -8.69-3.11c-4.34 0-7 2.23-7 5.57 0 2.06 1.17 3.7 3.7 5.28l6.92 4.34c4.93 3.11 6.75 6.11 6.75 10.27 0 5.69-4.17 10.86-12.62 10.86a21.69 21.69 0 0 1 -9.79-2.41v-5.92a15.32 15.32 0 0 0 9.68 3.57c4.81 0 7.39-2.75 7.39-5.86 0-2.12-1.41-4-4.34-5.87l-6.87-4.34c-4.57-2.82-6.22-5.81-6.22-9.8 0-5.11 3.47-10.45 12.5-10.45a17.16 17.16 0 0 1 8.57 2.18z"/></g></svg>