<svg viewBox="0 0 1130.23 248.27" xmlns="http://www.w3.org/2000/svg"><g fill="#55c0d2"><path d="m194.3 89.07c0 54.7-41 88.72-106.6 88.72h-30.89v67.67h-56.81v-245.46h87.7c65.57 0 106.6 34 106.6 89.07m-57.51 0c0-27-17.54-42.78-52.25-42.78h-27.73v85.21h27.73c34.71 0 52.25-15.78 52.25-42.43"/><path d="m331.06 54v50.5c-4.56-.35-8.07-.7-12.27-.7-30.16 0-50.15 16.48-50.15 52.59v89.07h-54.7v-188.65h52.25v24.9c13.32-18.24 35.81-27.71 64.87-27.71"/><path d="m491.59 186.2 29.1 31.56c-17.53 20-43.83 30.51-77.84 30.51-65.23 0-107.65-41-107.65-97.13 0-56.46 42.8-97.14 100.98-97.14 53.31 0 97.14 35.07 97.49 95.38l-139.56 27c8.06 18.59 25.59 28.05 50.14 28.05 20 0 34.37-6 47.34-18.23m-102.74-40.68 91.87-17.88c-5.26-19.29-21.74-32.26-44.54-32.26-27.35 0-46.28 18.24-47.33 50.14"/><path d="m740.47 56.81-79.6 188.65h-56.45l-79.25-188.65h56.45l52.25 128.34 54.01-128.34z"/><path d="m936.89 56.81v188.65h-52.24v-21.74c-13.65 16.48-33.65 24.55-58.91 24.55-53.3 0-94.33-37.87-94.33-97.13s41.03-97.14 94.33-97.14c23.14 0 42.78 7.36 56.45 22.79v-20zm-53.65 94.33c0-32.62-21-52.26-48-52.26-27.35 0-48.39 19.64-48.39 52.26s21 52.24 48.39 52.24c27 0 48-19.64 48-52.24"/><path d="m1016.26 112.91c0-9.81 10.52-17.53 35.07-17.53a109.53 109.53 0 0 1 42.52 8.26l23.27-36.64c-17.86-8.31-42.91-13-65.79-13-55 0-87.31 25.25-87.31 61 0 75.39 114 43.83 114 74.69 0 10.52-9.47 17.18-34.71 17.18-23.15 0-48.75-7.36-65.58-18.23l-18.23 39.27c17.53 11.57 49.79 20.34 81.7 20.34 56.46 0 89.07-24.9 89.07-60 0-74.34-114-43.13-114-75.39"/></g></svg>