<svg fill="none" height="136" viewBox="0 0 1122 136" width="1122" xmlns="http://www.w3.org/2000/svg" xmlns:xlink="http://www.w3.org/1999/xlink"><clipPath id="a"><path d="m0 0h1122v136h-1122z"/></clipPath><g clip-path="url(#a)" fill="#fff"><path d="m169.281 21.5068h34.805c21.516 0 32.907 12.0186 32.907 29.7303 0 12.6511-6.645 20.2418-17.719 24.6697l21.2 38.5862h-18.985l-20.883-38.5862h-14.555v38.5862h-16.77zm32.274 40.1675c12.34 0 18.035-3.4791 18.035-12.9675 0-8.2232-5.695-12.9674-18.352-12.9674h-15.504v26.2512z"/><path d="m310.717 78.4372c0-21.1907 12.973-36.0559 33.224-36.0559 17.086 0 28.793 9.8047 30.059 24.9861h-15.821c-.949-6.9581-6.961-12.0186-13.922-11.7023-10.125 0-16.77 8.5395-16.77 22.4558s6.645 22.7721 16.77 22.7721c6.961.316 12.973-4.7442 13.922-11.7023h15.821c-1.266 14.8653-12.34 25.3023-29.743 25.3023-21.2 0-33.54-14.8651-33.54-36.0558z"/><path d="m378.113 78.4372c0-21.507 12.973-36.0559 33.54-36.0559s33.54 14.5489 33.54 36.0559c0 21.5069-12.973 36.0558-33.54 36.0558s-33.54-14.5489-33.54-36.0558zm49.994 0c0-12.6512-5.696-23.0884-16.77-23.0884-11.075 0-16.77 10.1209-16.77 23.0884 0 12.9674 5.379 22.7718 16.77 22.7718s16.77-9.8044 16.77-22.7718z"/><path d="m449.623 44.5954h15.82v11.7023h.633c2.215-7.5907 9.176-12.9674 17.086-12.6511 1.899 0 3.797.3162 6.012.3162v15.1814c-2.531-.6325-5.062-.9488-7.594-.9488-8.226-.6326-15.188 5.693-15.82 13.9163v1.2651 41.1162h-16.454z"/><path d="m490.756 79.7022c0-23.4047 12.657-35.7395 28.794-35.7395 8.543-.3163 16.453 4.4279 19.934 12.3348h.633v-34.7907h16.453v92.9862h-16.137v-11.07h-.949c-2.531 5.061-7.91 11.07-19.934 11.07-16.137 0-28.794-11.702-28.794-34.7908zm49.994 0c0-13.6-5.696-22.1395-16.454-22.1395s-16.453 9.1721-16.453 22.1395 5.695 22.7718 16.453 22.7718 16.454-9.1718 16.454-22.7718z"/><path d="m634.408 79.7022c0-23.4047 12.656-35.7395 28.793-35.7395 8.543-.3163 16.454 4.4279 19.934 12.3348h.633v-34.7907h16.454v92.9862h-16.138v-11.07h-.949c-2.531 5.061-7.91 11.07-19.934 11.07-16.453 0-28.793-11.702-28.793-34.7908zm49.676 0c0-13.6-5.695-22.1395-16.453-22.1395s-16.453 9.1721-16.453 22.1395 5.695 22.7718 16.453 22.7718 16.453-9.1718 16.453-22.7718z"/><path d="m737.558 21.5068h59.802v14.2326h-42.715v25.9349h38.602v14.2325h-38.919v38.5862h-16.77z"/><path d="m845.455 44.5952h16.454v69.5818h-15.821v-12.335h-.633c-3.164 7.907-10.442 12.335-20.883 12.335-13.606 0-23.415-8.54-23.415-25.3027v-44.2791h16.454v41.7488c0 8.8559 5.379 14.549 13.289 14.549 8.227 0 14.871-6.642 14.871-14.8652 0-.3163 0-.6326 0-.9489z"/><path d="m907.156 57.5629h-13.923v36.0558c0 6.6423 3.165 8.2233 7.594 8.2233 1.582 0 3.165-.316 4.747-.633l2.847 12.968c-3.164.949-6.328 1.581-9.808 1.581-12.341.317-21.833-6.009-21.833-19.2928v-38.9023h-9.809v-12.6512h9.809v-16.7628h16.453v16.7628h13.923z"/><path d="m959.047 44.5952h16.454v69.5818h-15.821v-12.335h-.949c-3.164 7.907-10.442 12.335-20.883 12.335-13.606 0-23.098-8.54-23.098-25.3027v-44.2791h16.453v41.7488c0 8.8559 5.379 14.549 13.289 14.549 8.227 0 14.872-6.642 14.872-14.8652 0-.3163 0-.6326 0-.9489z"/><path d="m985.942 44.5954h15.818v11.7023h.64c2.21-7.5907 9.17-12.9674 17.08-12.6511 1.9 0 4.12.3162 6.01.3162v15.1814c-2.53-.6325-5.06-.9488-7.59-.9488-8.23-.6326-15.19 5.693-15.82 13.9163v1.2651 41.1162h-16.454z"/><path d="m1091.31 35.7394c0-8.5396 6.96-15.4977 15.5-15.4977 8.55 0 15.51 6.9581 15.51 15.4977 0 8.5395-6.96 15.4977-15.51 15.4977-8.86 0-15.5-6.9582-15.5-15.4977zm27.84 0c0-6.9582-5.69-12.6512-12.65-12.6512-6.97 0-12.66 5.693-12.66 12.6512 0 6.9581 5.69 12.6511 12.66 12.6511 6.96 0 12.65-5.693 12.65-12.6511zm-17.72-7.2744h6.96c2.54 0 4.43 1.8976 4.43 4.4279 0 1.5814-.95 3.479-2.53 4.1116l3.17 5.693h-2.85l-2.53-5.0605h-3.8v5.0605h-2.53zm6.02 6.9581c1.26 0 2.53-1.2651 2.53-2.5302 0 0 0 0 0-.3163 0-1.2651-.95-2.5302-2.22-2.5302h-.31-3.49v5.0604h3.49z"/><path d="m1025.81 80.0187c0-21.507 12.97-36.0558 32.91-36.0558 17.08 0 31.96 10.7535 31.96 35.107v5.0604h-48.73c0 12.0186 7.28 17.7117 17.72 17.7117 6.96 0 12.65-1.581 14.87-7.5907h16.14c-2.85 12.0187-13.61 20.5577-31.01 20.5577-20.89-.316-33.86-12.967-33.86-34.7903zm49.04-6.9581c.32-8.5396-6.01-15.814-14.55-16.4465-.32 0-.63 0-1.27 0-9.17 0-16.77 7.2744-16.77 16.4465z"/><path d="m563.848 80.0187c0-21.507 12.973-36.0558 32.907-36.0558 17.086 0 31.957 10.7535 31.957 35.107v5.0604h-48.727c0 12.0186 7.277 17.7117 17.719 17.7117 6.961 0 12.656-1.581 14.871-7.5907h16.137c-2.847 12.0187-13.605 20.5577-31.008 20.5577-20.883-.316-33.856-12.967-33.856-34.7903zm49.044-6.9581c.316-8.5396-6.012-15.814-14.555-16.4465-.317 0-.633 0-1.266 0-9.176 0-16.77 7.2744-16.77 16.4465z"/><path d="m241.106 80.0187c0-21.507 12.973-36.0558 32.907-36.0558 17.087 0 31.958 10.7535 31.958 35.107v5.0604h-48.411c0 12.0186 7.277 17.7117 17.719 17.7117 6.961 0 12.657-1.581 14.871-7.5907h16.138c-2.848 12.0187-13.606 20.5577-31.009 20.5577-21.2-.316-34.173-12.967-34.173-34.7903zm49.361-6.9581c.316-8.5396-6.012-15.814-14.555-16.4465-.317 0-.633 0-1.266 0-9.176 0-16.77 7.2744-16.77 16.4465z"/><g clip-rule="evenodd" fill-rule="evenodd"><path d="m72.7751 58.1953c-5.6954 0-10.4416 4.7442-10.4416 10.4372s4.7462 10.4372 10.4416 10.4372 10.4416-4.7442 10.4416-10.4372-4.7462-10.4372-10.4416-10.4372z"/><path d="m134.475 58.1953c-5.695 0-10.441 4.7442-10.441 10.4372s4.746 10.4372 10.441 10.4372c5.696 0 10.442-4.7442 10.442-10.4372s-4.746-10.4372-10.442-10.4372z"/><path d="m10.4416 58.1953c-5.69541 0-10.4416 4.7442-10.4416 10.4372s4.74619 10.4372 10.4416 10.4372c5.6955 0 10.4416-4.7442 10.4416-10.4372s-4.7461-10.4372-10.4416-10.4372z"/><path d="m63.9155 127.144v-30.6787c0-4.7442 3.797-8.5395 8.5432-8.5395s8.5431 3.7953 8.5431 8.5395v30.6787c0 4.745-3.7969 8.54-8.5431 8.54-4.7462.316-8.5432-3.479-8.5432-8.54z"/><path d="m94.9237 111.647v-86.0283c-.3164-4.7441 3.4805-8.8558 8.2263-9.172 4.747-.3163 8.86 3.479 9.176 8.2232v.9488 85.7113.317c-.316 4.744-4.429 8.223-9.176 8.223-4.4293-.316-7.9099-3.795-8.2263-8.223z"/><path d="m32.9067 111.647v-86.0284c0-4.7441 3.797-8.5395 8.5432-8.5395s8.5431 3.7954 8.5431 8.5395v85.7114.317c0 4.744-3.7969 8.539-8.5431 8.539s-8.5432-3.795-8.5432-8.539z"/><path d="m63.9155 39.2186v-30.67907c0-4.74418 3.797-8.53953 8.5432-8.53953s8.5431 3.79535 8.5431 8.53953v30.67907.3163c0 4.7442-3.7969 8.5395-8.5431 8.5395s-8.5432-3.7953-8.5432-8.8558z"/></g></g></svg>