<svg enable-background="new 0 0 283.5 90.3" viewBox="0 0 283.5 90.3" xmlns="http://www.w3.org/2000/svg"><path d="m45.1 90.3c24.9 0 45.1-20.2 45.1-45.1s-20.1-45.2-45.1-45.2-45.1 20.2-45.1 45.1c0 24.9 20.2 45.2 45.1 45.2z" fill="#d6dde0"/><path d="m45.1 1.9c-23.9 0-43.2 19.3-43.2 43.2s19.4 43.3 43.3 43.3 43.2-19.4 43.2-43.3c0-23.9-19.4-43.2-43.3-43.2z" fill="#002659"/><path d="m69 13.4c-13.2-13.2-34.6-13.2-47.8 0-6.4 6.4-9.9 15-9.9 24v16.3c.5 18.7 16 33.4 34.7 33 18-.5 32.5-15 33-33v-16.4c-.1-9-3.6-17.6-10-23.9zm-.6 62.8c-12.9 12.8-33.7 12.8-46.5 0-6-6-9.5-14.1-9.6-22.6.1-2.4.5-4.7 1.2-7 6.8 17.5 26.5 26.1 44 19.3 8.9-3.5 15.9-10.5 19.3-19.4.7 2.2 1.1 4.5 1.2 6.8-.1 8.7-3.5 16.9-9.6 22.9zm-54.5-31c1.7-5.1 4.7-9.8 8.6-13.4 6.2-5.7 14.3-8.9 22.7-8.9s16.4 3.2 22.4 9c3.9 3.7 6.9 8.2 8.7 13.3-6 17.3-24.8 26.4-42.1 20.4-9.5-3.3-17-10.8-20.3-20.4zm64.1 2.7c-1.6-6.3-5-12.1-9.8-16.6-6.2-5.9-14.5-9.2-23.1-9.2s-17 3.2-23.3 9.1c-4.7 4.4-8.1 10.1-9.6 16.4v-10.3c-.3-18.1 14.2-33.1 32.4-33.4 18.1-.3 33.1 14.1 33.4 32.3v1.1z" fill="#d6dde0"/><path d="m37.5 10.5c1.4-.3 2.8-.5 4.3-.7l3.3 6.8 3.3-6.8c1.4.1 2.9.4 4.3.7l3 8.9.7-7.9c2.4.7 4.6 1.6 6.8 2.8s2.6 2.5 2.4 3.9c0 0-.2 1.4-1.8.8 0 0 2.9 1.5 2.2 4.4-.2 1-1.3 1.5-2.8.7-1.5-.9-3.1-1.7-4.7-2.3-1.8-.7-3.6-1.3-5.5-1.7l-.7-1.9c-1.5-.3-3-.5-4.5-.6l-.8 1.7c-1.1 0-2.8 0-4 0l-.8-1.7c-1.5.1-3 .3-4.5.6l-.6 1.9c-1.1.2-2.1.5-3.4.9l.2-.6c-1.2.9-2.5 1.7-3.8 2.4-1.3.6-5 2.5-5.9.7-.2-.4-.3-.8-.3-1.3 1.1-.7 2.6-1.5 3.8-2.1 0 0-.6 2.3 1.7 1 .9-.4 1.6-1 2-1.8.5-1.5-1.1-1.2-1.7-1-1 .3-4.9 1.6-4.9-1 0-1.8 2.5-3.7 5.1-4.8 4-1.6 5.3-.1 5.2 1.1-1.6.4-2 .6-3.3 1 0-.5-.3-1.1-2-.5s-2.1 1.4-1.8 2.1c.3.9 2.9-.1 3.5-.2 3.6-.8 3.1 1.7 3.1 1.7s2.9-7.2 2.9-7.2zm1 6c1-.2 2.1-.4 3.1-.5l-1.7-3.8zm20.3 3.2c1.1.5 2.2 1 3.3 1.6 0 0 .8.6 1.2.1s.1-1.2-1.3-1.9c-1-.5-2-1-3.1-1.5zm.4-3.7s1.4.6 2.3 1c.3.2.6.3 1 .4.2 0 .4-.2.5-.4 0-1-1-1.4-1.3-1.6-1-.5-1.3-.6-2.3-1.1-.1.1-.2 1.7-.2 1.7zm-10.5 0c1 .1 2.1.2 3.1.4l-1.4-4.2z" fill="#dbb052"/><path d="m28.6 44.4c.9.5 1.9.8 2.9.7 2.2-.3 2.8-1.2 4.8-.6.6.2 1.2.5 1.6 1-.4-.1-.7-.2-1.1-.2-2.1-.1-3.8 1.5-5.9 1-1-.2-1.9-.9-2.3-1.9z" fill="#d6dde0"/><path d="m40.5 44.7c-.7.6-2.2 3.9-6.1 2 0 .9.2 1.8.8 2.5.7.8 1.8 1.2 2.9 1.1-1.2 1.1-.4 2.8-.3 5.3.4-.8 1.1-1.5 1.9-2-.6 1.1-1 2.2-1.2 3.4-.1 1.9 1.9 3.5 3.5 6 .5-2.9.4-4 .9-5.7.6 2.6.9 5.3.8 7.9 2.9-2.3 6.3-2.4 4.8-8.6 1 1.4 1.6 3 2 4.6 1.4-2.2 4.6-3.7 2.1-9.6 1.3 1.1 1.8 3 2.4 3.7.4-2.8 2-7.2-1.5-10.4 1.1.4 2 1.1 2.6 2 0-2.5 1.6-4-2-8.4.7-1.1 1.1-2.4 1.3-3.7-1.4.1-2.8.4-4.1 1-.2-.4-.6-.6-1-.7h-10.3c-.7 0-1.4 1-1.8 2.8-.2-.2-.5-.3-.8-.5-1.3-.5-4.2-.5-5.1 2.2-.3 1.1-.3 2.3-.1 3.5 0 0 3.2-2.4 4.8.4m2.4-2.5c-.5-.3-.9-1.3-.3-1.8.4-.3 1.7.3.8 1.3.4.3 1 .2 1.3-.3.1-.1.1-.2.1-.3h.3c-.1.7-.9 2-2.2 1.1z" fill="#d6dde0"/><path d="m50.3 34.8c.2 0 .4.1.6.2l4-8.8c-4.4 0-2.8 2.9-2.7 3.1s-.2.1-.2.1c-.3-.3-.6-.4-1-.4-.8-.1-1.6.5-1.7 1.3s.5 1.6 1.3 1.7h.3.4c-1.3 1.3-3.4 1.3-4.7 0-.3-.3-.5-.6-.6-.9-.2-.3.3.3.9.3.8.1 1.6-.5 1.7-1.3s-.5-1.6-1.3-1.7c-.1 0-.2 0-.3 0-.3 0-.6.1-.9.3.7-.5.8-1.5.2-2.1-.3-.4-.7-.6-1.2-.6-.8 0-1.5.7-1.5 1.5 0 .5.2.9.6 1.2-.2-.2-.6-.3-.9-.3-.8-.1-1.6.5-1.7 1.3s.5 1.6 1.3 1.7h.3c.7 0 1.1-.6.9-.3-.8 1.6-2.8 2.3-4.4 1.5-.3-.2-.6-.4-.9-.7h.4c.8 0 1.5-.6 1.5-1.5s-.5-1.4-1.3-1.4c-.4 0-.8.1-1.1.4 0 0-.3.1-.2-.1s1.6-3.1-2.7-3.1l4 8.8c.2-.1.4-.2.6-.2z" fill="#dbb052"/><path d="m55.1 44.8c.2-1 .1-2.3-1.9-4.5-.7.7-1.4 1.4-2.1 2 .3 2.7.4 6.8-1.9 9-.1-1.3-.4-2.5-1-3.7-.1 2.5-1.3 4.9-3.3 6.3.3-1.5.3-3.1.1-4.6-.4 1.2-1.3 2.2-2.5 2.6l-.5-3s1.1-.8 1.1-.8.3 1.7.3 1.7c1.2-1.1.2-2.8 1.3-3.2.6-.2.9.3 1.1.6.4 1 .6 2 .5 3.1.6-1.6.8-3.3.5-5-.1-.4.2-.9.6-1s.8.1 1 .5c.7.9 1.1 1.9 1.4 3 .5-1.7.5-3.5 0-5.2-.1-.3-.2-.6-.2-.6 1.7-1.3 3-3.1 3.8-5-1.8.6-3.5 1.4-5.1 2.4l-.6-.6 2.3-1.8c.2-.1.2-.3-.2-.3h-8.4c-.8 0-1.6.3-1.6 1.6l1 .9c.9-.3 1.8-.1 2.5.4l-.2.7s-.5-.4-.8-.2c-.7 1.8-1.8 2-2.8 1.7s-1.2-1.7-1.4-2.3c-1.8-1-4.6-1.2-4.8 2 1.6-.7 3.5-.2 4.4 1.3l5 1.5c-1.7 1.3-4 5.3-6.8 4 2 2.1 4.2-.5 4.8.6s-2.6 1.5-2 4.5c.5-.5 1.5-1.5 2.1-.9.3.3.3.7.1 1-1.4 3-2 4.4.3 6.8.5-3.7.7-4.7 1.7-4.7 1.4 0 1.9 6.2 2 7.7 2.8-1.8 3.3-2.2 2.3-6.7-.2-.8-.1-1.3.5-1.5.5-.2 1.1.1 1.3.6.7 1.1 1.3 2.2 1.8 3.4.7-1.2 2.6-2 .5-7-.3-.6-.3-1.1.2-1.4 1-.7 2.4 1 2.9 1.8-.1-1.8.8-4-2-6.8-.5-.5-.5-.9-.1-1.3.6-.6 2-.1 2.8.4z" fill="#da2032"/><g fill="#d6dde0"><path d="m42.4 43c1.5-.3 1.2 1 2.9 1.4-1.4.5-2-1.2-2.9-1.4z"/><path d="m51.5 38.5c-.5.9-1.4 1.6-2.5 1.9.5-.9 1.4-1.6 2.5-1.9z"/><path d="m21.2 63.3c-.3-.3-.6-.5-.9-.8v-1.4c.9.9 1.8 1.7 2.8 2.5v1.4c-.3-.3-.7-.5-1-.8v8.4c-.3-.2-.6-.5-.9-.7z"/><path d="m23.8 64.1c.8.6 1.6 1.2 2.5 1.7v1.3c-.6-.3-1.1-.6-1.6-1v2.6c.6.4 1.1.7 1.5.9v1.1c-.5-.3-.9-.5-1.5-.9v3.3c.6.4 1 .6 1.7 1.1v1.4c-1.3-.8-1.5-.9-2.7-1.8z"/><path d="m30.3 77.1c-2.7 1.4-4.2-4.6-2.9-9.2.2-.9 1-2 2.8 0v1.2c-1.4-2-2-1.4-2.1 1.7-.1 5.5 1.2 5.5 2.2 4.8z"/><path d="m31.1 68.2c.3.2.7.3 1.1.4v4.3c.5.2 1 .3 1.5.4v-4.2c.3.1.7.2 1 .3v9.8l-1-.3v-4.4c-.5-.2-1-.3-1.6-.5v4.4c-.4-.1-.7-.3-1.1-.5z"/><path d="m36.3 69.9c.4.1.6.2.9.2.6 1.9 1.3 4.6 1.9 6.5v-6.1c.3.1.7.2 1 .2v9.8l-.8-.1c-.6-1.9-1.4-4.4-2-6.3v5.9l-1.1-.2z"/><path d="m47.4 70.9c.4 0 .7-.1 1.1-.1v8.5c.8 0 1.6-.1 2.3-.3v1.3c-1.1.2-2.3.3-3.5.4z"/><path d="m60.9 76.6c-2.1 2.6-4.5 1.4-4.3-3.4.1-3.2 1.6-6 4.2-5.4v1.3c-3.5-1.6-3.3 5.2-2.9 6.7s1.2 1.1 1.9.7v-2.9c-.3.1-.5.3-.8.3v-1.2c.6-.2 1.2-.5 1.8-.8z"/><path d="m62.1 66.6 1-.5v9.8l-1 .5z"/><path d="m64.5 65.3c.9-.5 1.7-1.1 2.5-1.8v1.4c-.5.4-1 .7-1.6 1.1v2.7c.5-.3 1-.6 1.5-1v1.1c-.5.4-.9.7-1.4 1v3.3c.7-.4 1.1-.8 1.7-1.2v1.3c-.8.7-1.7 1.4-2.7 1.9z"/><path d="m67.8 71.1c.6.4 1.6-.7 1.3-2.1s-1.5-2.8-1.3-4.6c0 0 .3-2.6 2-3.2v1.2c-1.1.2-1.2 1.5-1.2 1.6 0 .3 0 .6.1.9.3.7.7 1.5 1 2.2 1.2 2.9-.4 5.4-1.8 5.4z"/><path d="m46 75.8c0 2.8-.5 5.1-2.3 5.1-1.6 0-2.3-2.3-2.3-5.1s.7-5.1 2.3-5.1 2.3 2.3 2.3 5.1zm-2.3-3.8c-.8 0-1.3 1.8-1.3 3.9s.4 3.8 1.3 3.8 1.3-1.7 1.3-3.8-.5-3.9-1.3-3.9z"/><path d="m55.7 74.7c0 2.8-.5 5-2.3 5-1.6 0-2.3-2.3-2.3-5s.7-5 2.3-5 2.3 2.2 2.3 5zm-2.3-3.8c-.8 0-1.3 1.8-1.3 3.8s.4 3.7 1.3 3.7 1.3-1.7 1.3-3.7-.5-3.8-1.3-3.8z"/></g><path d="m276.5 43.6v-.1c2.9-1.1 4.9-4.3 4.9-8.1s-1.7-9.9-11.4-9.9h-33v34.9l-15-34.9h-16.4l-12.9 29.6-12.7-29.6h-16.3l-13.3 30.7c.2-1 .4-2.1.4-3.1 0-7.1-4.5-10.1-11.9-11.4-3.9-.7-14.2-2.2-17.5-2.8-2-.3-3-1.1-3-2.5 0-2.6 2.5-3.9 7-3.9 6.1 0 8.3 1.9 8.7 4.7h15.1c-.8-9.5-9.6-12.9-24.1-12.9-17.5 0-20.8 7.5-20.8 12.7 0 5.9 3.2 10.1 11.4 11.3l13.3 2c4.6.7 6.3 1.5 6.3 3.6 0 3.4-3.6 4.2-7 4.2-7 0-8.6-1.9-9-4.9h-15.8c.8 11.2 10.6 13.6 24.2 13.6 4.4 0 16.5-.1 21.2-7l-2.5 5.8h14.3l2.4-6.5h17.5l2.5 6.5h19.6l2.3-6.6h17.5l2.4 6.5h44.1c12.3 0 14.5-7.2 14.5-11.9 0-5.6-2.8-9.1-7-10zm-110.3 7.2 5.6-15.1h.1l5.6 15.1zm41.9 0 5.6-15.1h.1l5.6 15.1zm42.2-16.6h13.3c2.9 0 4.1 1.6 4.1 3.4s-1.2 3.5-4.1 3.5h-13.3zm14.3 22.7h-14.3v-8.1h14.3c2.8 0 4.7 1.3 4.7 4s-1.9 4.1-4.7 4.1z" fill="#002659"/></svg>