<svg enable-background="new 0 0 2301.4 435.2" viewBox="0 0 2301.4 435.2" xmlns="http://www.w3.org/2000/svg"><g fill="#7f7f7f"><path d="m288.3 0h2c1.8 1.8 4 .9 6 .9 5.3.7 10.6 1.3 15.8 2.1 16.5 2.8 32 8.1 45.2 18.7 16.2 13 24 30.5 24.8 50.9.7 17.8.1 35.7.4 53.5.1 3.9-.9 5-5 5-53.3-.1-106.7-.1-160 0-3.9 0-5.2-1-5-5 .4-7.2-.5-14.3-4.6-20.6-4.7-7.2-13.9-10.2-23.5-7.5-7.9 2.2-12.6 8.9-13.4 17.3-1.1 12.5 5 20.3 15.7 25 17.3 7.6 34.7 15.2 52.2 22.6 32.5 13.8 64.9 27.6 97.4 41.2 26.4 11.1 41 31 43.9 59.3 3.5 33.5 3.6 67.2.5 100.8-2.8 29.5-18 51.4-46.6 62.4-13.4 5.2-27.5 7.5-41.9 8.5h-6c-1.5-.1-3-.2-4.5-.2-51.2 0-102.5 0-153.7 0-10 0-20 .1-29.9.2h-6c-14.7-.8-29.1-3.2-42.9-8.3-20-7.5-35.4-20.1-43.4-40.6-3.7-9.5-4.3-19.4-5.6-29.3l.2-79.8c.7-.1 1.3-.2 2-.2 55 0 110 0 165-.1 3.4 0 4.1 1.3 4.1 4.4-.1 11.3-.5 22.7.6 34 .7 6.8 1.8 13.8 7.7 18.3 12.5 9.5 29.3 2.9 32.2-12.9 2.1-11.8 2-24-.1-35.8-1.3-8.1-6.1-13.8-13.3-17.7-4.9-2.7-10-5.2-15.3-7.3-29.4-11.8-58.7-23.6-87.9-35.7-20.9-8.6-42.3-16.1-61.5-28.5-18.4-11.8-29.5-28.2-32-49.9-3-25.5-2.7-51.3-.7-76.8 2.2-24.9 14.8-43.3 37.1-55.1 15.4-8.1 32-11 48.9-12.9l5-.1h188.1c2.6-.3 5.5 1.3 8-.8z"/><path d="m1804.2 202.5c10.6 3.1 20.3 6.5 29.1 12.1 21.7 13.8 31.4 35 35.9 59.2 2.9 15.7 4.2 31.7 4.1 47.7 0 35-.1 70 .1 105 0 4.2-.7 5.7-5.4 5.7-53.2-.2-106.3-.2-159.5 0-4.4 0-5.6-1-5.6-5.5.2-46 .1-92 .1-138 .1-5.7-.4-11.3-1.5-16.9-2.2-10.8-8.2-16.1-19.3-16.6-5.8-.3-11.7.1-17.5-.2-3.7-.2-4.8.9-4.8 4.7.2 21.2.1 42.3.1 63.5 0 34.5-.1 69 .1 103.5 0 4.5-1.2 5.5-5.6 5.5-52.3-.2-104.7-.2-157 0-4.1 0-5.3-1-5.3-5.2.1-139.7.1-279.3 0-419 0-3.9 1-5 5-5 90.5.1 181 0 271.5.2 20.1 0 39.8 2.7 58.6 10.6 21.8 9.2 34.5 26.2 40.2 48.5 7.1 27.6 7.2 56.5.2 84.1-6.6 26.5-24.5 42.8-49.7 51.6-4.3 1.5-8.7 2.9-13.8 4.5zm-144.1-71.6v26.4c0 2.3.2 3.8 3.1 3.7 6.5-.2 13 .2 19.4-.2 11.6-.8 17-5.8 19.2-17.2 1.7-9 1.5-18.3-.5-27.2-1.6-8.1-6.6-12.8-14.5-14.4-7.6-1.6-15.3-.5-22.9-1-3.1-.2-4 .9-4 4 .3 8.6.2 17.2.2 25.9z"/><path d="m2215 432c-27.2 0-54.3 0-81.5.1-3.6 0-5.1-.5-5.5-4.7-2.6-28-5.8-56-8.4-84-.4-3.6-1.6-4.3-4.9-4.3-12.7.2-25.3.3-38-.1-4.8-.2-5.9 1.9-6.3 5.8-1.3 13.9-2.7 27.8-4.1 41.7-1.4 13.6-2.9 27.1-4.2 40.7-.4 3.9-2.1 4.7-5.8 4.7-54.3-.1-108.7-.1-163 0-4.6 0-4.6-1.7-4-5.1 5.2-28.7 10.3-57.3 15.3-86 6-34.1 12-68.1 18.1-102.2 8.1-45.5 16.1-91.1 24.2-136.6 5.5-31.1 10.9-62.3 16.3-93.4.7-4.3 2-5.9 6.8-5.9 83.6.2 167.3.2 250.9 0 4.1 0 5.7.9 6.4 5.2 9.2 53.1 18.5 106.2 27.9 159.2 5.1 29.2 10.5 58.3 15.6 87.5 8.1 45.7 16.1 91.4 24.1 137.1 2 11.1 3.9 22.3 5.8 33.4 1.2 6.7 1.2 6.7-5.4 6.7zm-119.2-329.1c-1.5.9-1.4 2.3-1.5 3.6-1.1 9.6-2.1 19.2-3.3 28.7-4.4 35.3-8.9 70.6-13.4 105.9-.4 3 .3 3.8 3.2 3.8 8.3-.1 16.6 0 25 0 7 0 6.8 0 6-6.8-2.9-23.6-5.8-47.2-8.5-70.8-2.5-21.4-5-42.8-7.5-64.4z"/><path d="m1011.3.9h5c17.8 1.3 35.4 3.6 51.8 11.5 18.2 8.8 27.8 24 33 42.8 4.9 17.7 6 35.7 5.9 53.9-.1 15.2-.1 30.3.1 45.5 0 3.3-.6 4.6-4.3 4.6-54-.1-108-.1-162 0-3.7 0-4.4-1.3-4.4-4.6.2-9.3 0-18.7 0-28 .1-4.7-.4-9.3-1.4-13.9-2.2-10.2-8.4-15.2-19.1-15.5-10.5-.3-17.2 4.5-19.8 14.5-1.4 6-2.1 12.2-2 18.3v130 47.5c0 6 .9 11.9 2.6 17.6 2.4 8 8.3 12.5 16.5 12.9 10 .5 16.4-3 19.9-11 2.3-5.4 3.4-11.2 3.2-17 .1-15.8.2-31.7 0-47.5-.1-4.2.8-5.7 5.4-5.7 53.3.2 106.7.2 160 0 4 0 5.4.9 5.4 5.2-.2 28 .1 56-.2 84-.2 16.7-2.8 33.1-10.2 48.4-8.9 18.4-24.2 28.7-43.1 34.4-12.5 3.6-25.3 5.8-38.3 6.3h-6c-9 0-18-.1-26.9-.2-53.2 0-106.5 0-159.7 0-1.5 0-3 .1-4.5.2h-6c-16.7-1.3-33-4.1-48.2-11.7-17.8-8.8-28.8-23.2-34.6-41.8-3.7-12.1-5.4-24.8-5.3-37.4.1-81.6.1-163.3 0-244.9-.1-15 1.8-29.9 5.7-44.4 7.7-29 27.5-44.9 56.2-50.8 8.7-1.7 17.4-2.8 26.2-3.3l6 .1c21.1 0 42.2.1 63.4.1 40.6 0 81.2 0 121.8-.1z"/><path d="m1297.9 3c54.7 0 109.3.1 164-.1 4.4 0 5.5 1.1 5.5 5.5-.2 29.2-.2 58.3 0 87.5 0 4.2-1.2 5.2-5.3 5.2-25.2-.2-50.3 0-75.5-.2-4.8 0-6.1 1.3-6.1 6.1.1 106 .2 212 .1 318 0 8 .8 7-6.8 7-51 0-102-.1-153 .1-4.9 0-6.4-1-6.4-6.2.2-106.2.2-212.3.1-318.5 0-6.4 0-6.4-6.4-6.4-25 0-50-.1-75 .1-3.9 0-5-1-5-5 .2-29.3.2-58.7 0-88 0-4.2 1.2-5.2 5.3-5.2 54.8.2 109.6.2 164.5.1z"/><path d="m419 217.5c0-69.5 0-139-.1-208.5 0-4.8 1.1-6.1 6-6.1 86.1.2 172.3.2 258.4 0 4.8 0 6.1 1.1 6 6-.2 29-.2 58 0 87 0 4.2-1.2 5.3-5.3 5.2-30.8-.2-61.7 0-92.5-.2-4 0-5.5.8-5.4 5.1.3 12.2.3 24.3 0 36.5-.1 3.8 1.1 4.7 4.8 4.7 31-.1 62 0 93-.2 4.7 0 5.4 1.5 5.4 5.7-.2 28.8-.2 57.7 0 86.5 0 4.7-1 6.2-6 6.1-30.3-.2-60.7 0-91-.3-5.3 0-6.3 1.6-6.2 6.5.2 25.8.2 51.7 0 77.5 0 4.1 1.2 5 5.1 4.9 31-.2 62 0 93-.2 3.8 0 5.1.8 5.1 4.9-.2 29.5-.2 59 0 88.5 0 3.6-.7 4.9-4.6 4.9-87-.1-174-.1-261 0-4.8 0-4.8-2.2-4.8-5.7.1-69.5.1-139.2.1-208.8z"/></g></svg>