<svg fill="none" height="136" viewBox="0 0 719 136" width="719" xmlns="http://www.w3.org/2000/svg" xmlns:xlink="http://www.w3.org/1999/xlink"><clipPath id="a"><path d="m0 0h719v136h-719z"/></clipPath><g clip-path="url(#a)" fill="#fff"><path d="m90.0702 0h.6248c.5624.5625 1.2497.28125 1.8745.28125 1.6559.21875 3.3117.40625 4.9363.65625 5.1552.875 9.9972 2.53125 14.1212 5.84375 5.061 4.06255 7.498 9.53125 7.748 15.90625.219 5.5625.031 11.1562.125 16.7187.031 1.2188-.281 1.5626-1.562 1.5626-16.652-.0313-33.3351-.0313-49.987 0-1.2185 0-1.6246-.3126-1.5621-1.5626.1249-2.25-.1562-4.4687-1.4372-6.4374-1.4683-2.25-4.3426-3.1876-7.3418-2.3438-2.4681.6875-3.9365 2.7813-4.1864 5.4063-.3437 3.9062 1.5621 6.3437 4.905 7.8125 5.4048 2.375 10.8409 4.7499 16.3082 7.0624 10.1536 4.3125 20.276 8.6251 30.4293 12.8751 8.248 3.4687 12.809 9.6874 13.715 18.5312 1.094 10.4687 1.125 21.0005.157 31.5005-.875 9.218-5.624 16.062-14.559 19.5-4.186 1.625-8.5915 2.343-13.0904 2.656h-1.8745c-.4686-.031-.9372-.063-1.4059-.063-15.9958 0-32.0229 0-48.0187 0-3.1242 0-6.2484.032-9.3413.063h-1.8745c-4.5926-.25-9.0914-1-13.4028-2.594-6.24834-2.344-11.05959-6.281-13.55893-12.687-1.155953-2.969-1.343404-6.063-1.749548-9.157l.062484-24.9372c.218693-.0313.406144-.0626.624837-.0626 17.183057 0 34.366057 0 51.549057-.0312 1.0622 0 1.2809.4063 1.2809 1.375-.0312 3.5313-.1562 7.0938.1875 10.625.2187 2.125.5623 4.312 2.4056 5.719 3.9052 2.969 9.1539.906 10.0599-4.031.656-3.688.6248-7.5005-.0313-11.188-.4061-2.5313-1.9057-4.3125-4.1551-5.5312-1.5309-.8438-3.1242-1.6251-4.78-2.2813-9.1851-3.6875-18.339-7.375-27.4616-11.1562-6.5296-2.6875-13.2153-5.0313-19.2138-8.9063-5.74847-3.6875-9.21632-8.8125-9.997367-15.5938-.937255-7.9687-.84353-16.0312-.218693-23.9999.68732-7.7813 4.6238-13.5313 11.59076-17.2188 4.8112-2.53125 9.9974-3.4375 15.2772-4.03125l1.5621-.03125h58.7659c.8123-.09375 1.7183.40625 2.4994-.25z"/><path d="m563.665 63.2812c3.312.9688 6.343 2.0313 9.092 3.7813 6.779 4.3125 9.81 10.9375 11.216 18.5.906 4.9062 1.312 9.9063 1.281 14.9065 0 10.937-.032 21.875.031 32.812 0 1.313-.219 1.782-1.687 1.782-16.621-.063-33.21-.063-49.831 0-1.375 0-1.749-.313-1.749-1.719.062-14.375.031-28.75.031-43.1252.031-1.7813-.125-3.5313-.469-5.2813-.687-3.375-2.562-5.0313-6.03-5.1875-1.812-.0938-3.655.0313-5.467-.0625-1.156-.0625-1.499.2813-1.499 1.4688.062 6.625.031 13.2187.031 19.8437 0 10.781-.031 21.563.031 32.344 0 1.406-.375 1.719-1.75 1.719-16.339-.063-32.71-.063-49.049 0-1.281 0-1.656-.313-1.656-1.625.031-43.6567.031-87.2818 0-130.938 0-1.21875.312-1.5625 1.562-1.5625 28.274.03125 56.548 0 84.822.0625 6.279 0 12.434.84375 18.307 3.3125 6.811 2.875 10.779 8.1875 12.56 15.1562 2.218 8.625 2.249 17.6563.062 26.2813-2.062 8.2812-7.654 13.375-15.527 16.125-1.344.4688-2.718.9062-4.312 1.4062zm-45.019-22.375v8.2501c0 .7187.062 1.1875.968 1.1562 2.031-.0625 4.062.0625 6.061-.0625 3.624-.25 5.312-1.8125 5.999-5.375.531-2.8125.468-5.7187-.156-8.5-.5-2.5312-2.062-4-4.53-4.5-2.375-.5-4.78-.1562-7.155-.3125-.968-.0625-1.249.2813-1.249 1.25.093 2.6875.062 5.375.062 8.0937z"/><path d="m692.007 135c-8.498 0-16.964 0-25.462.031-1.125 0-1.593-.156-1.718-1.469-.813-8.75-1.812-17.5-2.625-26.25-.125-1.125-.5-1.343-1.531-1.343-3.967.062-7.904.093-11.872-.032-1.499-.062-1.843.594-1.968 1.813-.406 4.344-.843 8.687-1.281 13.031-.437 4.25-.906 8.469-1.312 12.719-.125 1.219-.656 1.469-1.812 1.469-16.964-.032-33.96-.032-50.924 0-1.437 0-1.437-.532-1.25-1.594 1.625-8.969 3.218-17.906 4.78-26.875 1.875-10.6563 3.749-21.2812 5.655-31.9375 2.531-14.2187 5.03-28.4687 7.561-42.6875 1.718-9.7187 3.405-19.4687 5.092-29.1875.219-1.34375.625-1.84375 2.124-1.84375 26.119.0625 52.268.0625 78.386 0 1.281 0 1.781.28125 2 1.625 2.874 16.59375 5.779 33.18755 8.716 49.75005 1.594 9.125 3.281 18.2187 4.874 27.3437 2.531 14.2813 5.03 28.5625 7.529 42.8435.625 3.469 1.219 6.969 1.812 10.438.375 2.093.375 2.093-1.687 2.093zm-37.24-102.8437c-.469.2812-.438.7187-.469 1.125-.344 3-.656 5.9999-1.031 8.9687-1.375 11.0312-2.78 22.0625-4.186 33.0938-.125.9375.093 1.1874.999 1.1874 2.593-.0312 5.187 0 7.811 0 2.187 0 2.124.0001 1.874-2.1249-.906-7.375-1.812-14.75-2.655-22.125-.781-6.6875-1.562-13.375-2.343-20.125z"/><path d="m315.949.28125h1.562c5.561.40625 11.06 1.125 16.183 3.59375 5.686 2.75 8.685 7.5 10.31 13.375 1.531 5.5313 1.875 11.1563 1.843 16.8438-.031 4.75-.031 9.4687.032 14.2187 0 1.0313-.188 1.4375-1.344 1.4375-16.87-.0312-33.741-.0312-50.612 0-1.156 0-1.374-.4062-1.374-1.4375.062-2.9062 0-5.8437 0-8.75.031-1.4687-.125-2.9062-.438-4.3437-.687-3.1875-2.624-4.75-5.967-4.8438-3.28-.0937-5.373 1.4063-6.186 4.5313-.437 1.875-.656 3.8125-.625 5.7187v40.625 14.8438c0 1.875.282 3.7187.813 5.5002.75 2.5 2.593 3.906 5.155 4.031 3.124.156 5.123-.937 6.217-3.437.718-1.688 1.062-3.5005.999-5.313.032-4.9375.063-9.9062 0-14.8437-.031-1.3125.25-1.7813 1.688-1.7813 16.651.0625 33.335.0625 49.986 0 1.25 0 1.688.2813 1.688 1.625-.063 8.75.031 17.5-.063 26.25-.062 5.219-.875 10.344-3.187 15.125-2.78 5.75-7.56 8.969-13.465 10.75-3.905 1.125-7.904 1.813-11.965 1.969h-1.875c-2.812 0-5.623-.031-8.404-.063-16.621 0-33.273 0-49.893 0-.469 0-.938.032-1.406.063h-1.875c-5.217-.406-10.309-1.281-15.058-3.656-5.561-2.75-8.998-7.25-10.81-13.063-1.156-3.781-1.687-7.75-1.656-11.687.031-25.5005.031-51.0317 0-76.5317-.031-4.6875.563-9.3438 1.781-13.875 2.406-9.06255 8.592-14.0313 17.558-15.87505 2.718-.53125 5.436-.875 8.185-1.03125l1.875.03125c6.592 0 13.184.03125 19.807.03125 12.684 0 25.369 0 38.053-.03125z"/><path d="m405.488.9375c17.089 0 34.147.03125 51.237-.03125 1.374 0 1.718.34375 1.718 1.71875-.062 9.125-.062 18.2187 0 27.3438 0 1.3124-.375 1.6249-1.656 1.6249-7.873-.0625-15.714.0001-23.587-.0625-1.5 0-1.906.4063-1.906 1.9063.031 33.125.062 66.25.031 99.3755 0 2.5.25 2.187-2.124 2.187-15.934 0-31.867-.031-47.8.031-1.531 0-2-.312-2-1.937.063-33.1877.063-66.344.031-99.5315 0-2 0-2-1.999-2-7.811 0-15.621-.0313-23.431.0312-1.219 0-1.563-.3125-1.563-1.5625.063-9.1562.063-18.3437 0-27.49995 0-1.3125.375-1.625 1.656-1.625 17.121.0625 34.241.0625 51.393.03125z"/><path d="m130.903 67.9688c0-21.7188 0-43.4376-.031-65.1563 0-1.5.344-1.90625 1.875-1.90625 26.899.0625 53.829.0625 80.729 0 1.499 0 1.905.34375 1.874 1.875-.062 9.06245-.062 18.12495 0 27.18755 0 1.3124-.375 1.6562-1.656 1.6249-9.622-.0625-19.276.0001-28.898-.0625-1.25 0-1.719.25-1.688 1.5938.094 3.8125.094 7.5938 0 11.4063-.031 1.1875.344 1.4687 1.5 1.4687 9.685-.0312 19.37 0 29.055-.0625 1.468 0 1.687.4688 1.687 1.7813-.062 9-.062 18.0312 0 27.0312 0 1.4688-.312 1.9375-1.874 1.9063-9.467-.0625-18.964 0-28.431-.0938-1.655 0-1.968.5-1.937 2.0313.063 8.0625.063 16.1562 0 24.2192 0 1.281.375 1.562 1.594 1.531 9.685-.063 19.37 0 29.055-.063 1.187 0 1.593.25 1.593 1.532-.062 9.218-.062 18.437 0 27.656 0 1.125-.219 1.531-1.437 1.531-27.18-.031-54.361-.031-81.541 0-1.5 0-1.5-.688-1.5-1.781.031-21.719.031-43.5002.031-65.2502z"/></g></svg>