<svg enable-background="new 0 0 620.2 102.7" viewBox="0 0 620.2 102.7" xmlns="http://www.w3.org/2000/svg"><path d="m93.2 19.7-19.6 58.8-19.6-58.8h-4.7l20.8 62.4h7l20.8-62.4z"/><path d="m259.2 19.7v9c-4.3-6.2-11.4-10-19-10h-1.5c-9.8 0-18.5 6.1-21.8 15.3-.8 2.3-1.8 6.3-1.8 16.8 0 10.6 1 14.7 1.8 16.9 3.3 9.2 12 15.3 21.8 15.3h1.5c7.6 0 14.7-3.8 19-10-.1 6-.6 10.1-1.5 12.6-2.6 7.4-9.7 12.3-17.5 12.3h-1.5c-7 0-13.5-3.2-17-8.1h-5.2c3.7 7.5 12.5 12.6 22.3 12.6h1.5c9.8 0 18.5-6.1 21.8-15.3.8-2.2 1.8-6.2 1.8-16.9v-50.5zm-1.5 46.6c-2.6 7.4-9.7 12.3-17.5 12.3h-1.5c-7.9 0-14.9-4.9-17.5-12.3-.4-1.1-1.5-4.3-1.5-15.4 0-9.9.9-13.5 1.5-15.4 2.6-7.4 9.7-12.3 17.5-12.3h1.5c7.9 0 14.9 4.9 17.5 12.3.4 1.1 1.5 4.3 1.5 15.3 0 7.6-.5 12.6-1.5 15.5"/><path d="m317 66.7-.1.3c-2.4 6.8-10.3 11.7-18.9 11.7h-1.5c-7.9 0-14.9-4.9-17.5-12.3-.4-1.1-1.5-4.3-1.5-15.4v-.3h44.1v-2.3c-.1-8.7-1.1-12.3-1.8-14.2-3.3-9.2-12-15.4-21.9-15.3h-1.5c-9.8 0-18.5 6.1-21.8 15.3-.8 2.3-1.8 6.4-1.8 16.8s1 14.7 1.8 16.9c3.3 9.2 12 15.3 21.8 15.3h1.5c10.6 0 20.1-6 23.1-14.7l.6-1.8zm-38-31.1c2.6-7.4 9.7-12.3 17.5-12.3h1.5c7.9 0 14.9 4.9 17.5 12.3.3.9 1.2 3.3 1.4 10.5h-39.4c.3-6.3.9-9 1.5-10.5"/><path d="m144 66.7-.1.3c-2.4 6.8-10.3 11.7-18.9 11.7h-1.5c-7.9 0-14.9-4.9-17.5-12.3-.4-1.1-1.5-4.3-1.5-15.4v-.3h44.1v-2.3c-.1-8.7-1.1-12.3-1.8-14.2-3.3-9.2-12-15.4-21.8-15.3h-1.5c-9.8 0-18.5 6.1-21.8 15.3-.8 2.3-1.8 6.4-1.8 16.8s1 14.7 1.8 16.9c3.3 9.2 12 15.3 21.8 15.3h1.5c10.6 0 20.1-6 23.2-14.7l.6-1.8zm-38.1-31.1c2.6-7.4 9.7-12.3 17.5-12.3h1.5c7.9 0 14.9 4.9 17.5 12.3.3.9 1.2 3.3 1.4 10.5h-39.5c.4-6.3 1.1-9 1.6-10.5"/><path d="m24 46.2c-11.4 0-17.2-3.7-17.2-11 0-5.1 1.7-11.9 16-11.9h1.8c13.1 0 15.6 5.7 16 10.5h4.5c-.4-7.2-4.5-15.1-20.5-15.1h-1.9c-17 0-20.5 8.9-20.5 16.4 0 5.9 2.9 15.6 21.8 15.6 16.6 0 18.9 7.3 18.9 14.4 0 9-6 13.5-17.7 13.5h-3c-11.7 0-17.7-4.6-17.7-13.5h-4.5c0 11.6 7.9 18 22.2 18h3c14.3 0 22.2-6.4 22.2-18.1 0-12.6-7.7-18.8-23.4-18.8"/><path d="m203.9 4.2v7.9h-4.5v-12.1h2.4 2.1z"/><path d="m203.9 27.5v-7.8h-2.3-2.2v62.4h4.5z"/><path d="m561.3 7.8v4.3h-2.2-2.3v-12.1h4.5z"/><path d="m561.3 29.5v-9.8h-2.2-2.3v62.4h4.5z"/><path d="m189.6 19.5c-1.9-.5-3.8-.7-5.8-.7h-1.5c-7.6 0-14.7 3.8-19 10v-9.1h-4.5v62.5h4.5v-32.4c.1-9.1.9-12.5 1.5-14.3 2.6-7.4 9.7-12.3 17.5-12.3h1.5c2 0 3.9.3 5.8.9z"/><path d="m596.6 83.1h-1.5c-9.8 0-18.5-6.1-21.8-15.3-.8-2.2-1.8-6.2-1.8-16.9 0-10.5.9-14.5 1.8-16.8 3.3-9.2 12-15.3 21.8-15.3h1.5c9.8 0 18.5 6.1 21.8 15.3.8 2.3 1.8 6.3 1.8 16.8 0 10.6-1 14.7-1.8 16.9-3.3 9.2-12 15.3-21.8 15.3m-1.5-59.9c-7.9 0-14.9 4.9-17.5 12.3-.6 1.8-1.5 5.4-1.5 15.3 0 11.1 1.1 14.3 1.5 15.4 2.6 7.4 9.7 12.3 17.5 12.3h1.5c7.9 0 14.9-4.9 17.5-12.3 1-2.9 1.5-7.9 1.5-15.4 0-11.1-1.1-14.3-1.5-15.3-2.6-7.4-9.7-12.3-17.5-12.3z"/><path d="m540.4 82.1h4.5v-82.1h-4.5v28.7c-4.3-6.2-11.4-10-19-10h-1.5c-9.8 0-18.6 6.1-21.9 15.3-.8 2.3-1.8 6.3-1.8 16.8 0 10.6 1 14.7 1.8 16.9 3.3 9.2 12 15.3 21.8 15.3h1.5c7.6 0 14.7-3.8 19-10zm-1.5-15.8c-2.6 7.4-9.7 12.3-17.5 12.3h-1.5c-7.9 0-14.9-4.9-17.5-12.3-.4-1.1-1.5-4.3-1.5-15.4 0-9.9.9-13.5 1.5-15.3 2.6-7.4 9.7-12.3 17.5-12.3h1.5c7.9 0 14.9 4.9 17.5 12.3.4 1.1 1.5 4.3 1.5 15.3 0 7.5-.5 12.5-1.5 15.4"/><path d="m487.1 36.4c0-11.1-7.7-17.8-20.6-17.8h-1.8c-13.3 0-21.2 5.5-21.9 15.1h4.5c.8-8.7 9.8-10.6 17.4-10.6h1.8c6 0 16.1 1.7 16.1 13.3v9.6h-19.5c-16 0-23.5 5.8-23.5 18.3v.7c0 11.7 7.9 18.1 22.2 18.1h1.8c7.6 0 14.6-3.8 18.9-10v9.1h4.5zm-4.5 14.4c0 7.5-.5 12.5-1.5 15.4-2.6 7.4-9.7 12.3-17.5 12.3h-1.7c-11.8 0-17.7-4.6-17.7-13.6v-.7c0-7.2 2.3-13.8 19-13.8h19.5z"/><path d="m415.8 35c0-15.8-15.6-14.9-20.4-15.8h22.5c6.5 0 16.8 4.3 16.8 15.8s-8.1 15.8-14.5 15.8h-10.6c-.1 0 6.2.1 6.2-15.8z"/><path d="m330.6 82.1h26.9l-26.9-28.1z"/><path d="m359 19.2 25.6 30.6v-30.6z"/><path d="m408.4 50.8h-22.9l26.1 31.3h24.5z"/><path d="m348.9 35c0 11.9 3.8 14.9 8.6 15.8h-13.5c-6.4 0-14.4-4.3-14.4-15.8s8-15.8 14.4-15.8h13.5c-4.7.9-8.6 3.9-8.6 15.8z"/><path d="m367.6 66.5c0-11.8-3.9-14.7-8.7-15.6h13.6c6.5 0 14.5 4.2 14.5 15.6s-8.1 15.6-14.6 15.6h-13.6c4.9-.9 8.8-3.8 8.8-15.6z"/></svg>