<svg enable-background="new 0 0 511 195" viewBox="0 0 511 195" xmlns="http://www.w3.org/2000/svg"><g fill="#33383c"><path d="m165.2 183.5h-40.1l-38.6-62.7-38.5 62.7h-37.6l55-85.5-51.5-80.3h38.8l35.7 59.6 35-59.6h37.9l-52 82.2z"/><path d="m225 119.7h-17.8l-3-18.5h-21.6l-3 18.5h-16.2l17.9-102h25.8zm-40.2-32.4h17l-8.5-51.6z"/><path d="m270.5 90.1 12-72.4h24.5v102h-16.7v-73.1l-12.2 73.1h-16.7l-13.1-72.1v72.1h-15.3v-102h24.5z"/><path d="m337.5 60.7h24.2v14.6h-24.2v29.9h30.4v14.6h-48.1v-102h48.1v14.6h-30.4z"/><path d="m415.7 119.7c-1-2.6-1.6-4.2-1.6-12.5v-16c0-9.5-3.5-13-11.5-13h-6.1v41.5h-17.6v-102h26.6c18.3 0 26.1 7.7 26.1 23.4v8c0 10.5-3.7 17.3-11.5 20.7 8.8 3.3 11.7 11.1 11.7 21.7v15.7c0 5 .2 8.6 1.9 12.4zm-19.3-87.4v31.3h6.9c6.6 0 10.6-2.6 10.6-10.8v-10c0-7.3-2.7-10.5-9-10.5z"/><path d="m500.2 119.7h-17.8l-3-18.5h-21.6l-3 18.5h-16.2l17.9-102h25.8zm-40.2-32.4h17l-8.5-51.6z"/></g><path d="m501.9 139h-356l28.5 43.5h327.5z" fill="#2ec5f4"/></svg>