<svg fill="none" height="122" viewBox="0 0 494 122" width="494" xmlns="http://www.w3.org/2000/svg"><g fill="#000"><path d="m159.1 28.5 5.8 13.3c1.5 3.6 2.7 7.2 4.1 10.9h.3c1.4-4 2.8-7.6 4.1-10.9l5.6-13.3h10l-14.7 30.6 14.6 31.4h-10.8l-5.9-14c-1.4-3.3-2.6-6.5-4.1-10.6h-.3c-1.3 3.7-2.7 7-4.1 10.6l-5.8 14h-10l14.7-31.1-14.3-30.9z"/><path d="m194.2 44.5c0-7.3-.4-11-.5-16h8.6l.5 7.7h.3c2.7-5 7.4-8.7 14-8.7 5.8 0 10.6 2.8 12.9 9.5h.3c1.7-3.1 3.8-5.5 6.1-7 2.4-1.7 5.4-2.4 8.6-2.4 8.3 0 14.9 6.1 14.9 21.9v41.1h-9.9v-38.9c0-8.1-1.2-15.9-8.7-15.9-4.1 0-7.7 3.5-9.1 9.2-.3 1.7-.4 3.6-.4 5.6v39.8h-9.7v-40.5c0-6.9-1.3-14.1-8.6-14.1-4 0-8.1 3.5-9.2 10-.3 1.7-.4 3.5-.4 5.4v39.3h-9.7z"/><path d="m270.5 44.5004c0-5.3-.4-11.4-.5-16h8.8l.5 9.7h.3c2-5.9 7.3-10.8 13.1-10.8.8 0 1.4.1 2 .1v10.1c-.6-.1-1.3-.1-2-.1-6.3 0-10.9 5.8-11.9 12.9-.3 1.7-.4 3.6-.4 5.6v34.3h-9.9z"/><path d="m304.6 60.4c.1 19 7.6 23.1 14.7 23.1 4.2 0 7.8-1 10.2-2.4l1.5 7.3c-3.5 1.9-8.7 2.9-13.6 2.9-14.9 0-22.5-12.2-22.5-31.1 0-20.1 8.5-32.7 20.9-32.7 12.7 0 17.7 13.3 17.7 27.4 0 2.3 0 4-.1 5.5zm19.5-7.3c.3-12.4-4.5-17.9-9.2-17.9-6.4 0-9.7 9.5-10.1 17.9z"/><path d="m374 76.4001c0 4.7 0 10.1.6 14.1h-9l-.6-6.5h-.4c-2.7 4.7-7 7.6-12.3 7.6-8.3 0-14.7-7-14.7-17.7 0-15.5 12.4-22.4 26.4-22.5v-1.9c0-8.3-2.1-14.1-9.9-14.1-3.8 0-7.3 1.3-10.2 3.2l-2.2-6.9c2.6-1.9 8.3-4.1 14.5-4.1 12.4 0 17.8 8.2 17.8 22.2zm-9.7-17.9c-5.1 0-17 .9-17 14.3 0 8.1 4.1 11 7.6 11 4.4 0 8.1-3.2 9.2-9.4.3-1.2.3-2.4.3-3.5z"/><path d="m394.8 1.90039h-9.9v88.60001h9.9z"/><path d="m417 12.5001c.1 3.8-2.3 6.4-6 6.4-3.2 0-5.6-2.6-5.6-6.4s2.6-6.4 5.8-6.4c3.5 0 5.8 2.6 5.8 6.4zm-10.6 16h9.9v62h-9.9z"/><path d="m439.1 14v14.5h11.9v7.6h-11.9v36.8c0 8.1 2.9 10.2 6.5 10.2 1.5 0 2.8-.1 4-.4l.4 7.6c-1.8.6-4.1 1-7.3 1-3.8 0-7.3-1-9.7-3.7-2.4-2.8-3.7-7-3.7-15.6v-35.9h-7.6v-7.6h7.6v-10.5z"/><path d="m463.2 28.5004 8.2 35.6c1.2 4.9 1.8 9 2.6 12.8h.3c.6-3.5 1.7-8.2 2.7-12.7l7.3-35.7h9.7l-10.1 39.8c-3.8 15.6-8.1 30.6-15.4 39.9996-4.4 5.5-9 8.5-11.1 9.5l-3.6-8.5c2.8-1.5 5.9-4.2 8.7-7.8 2.6-3.1996 4.6-7.3996 5.6-10.3996.5-1.5.6-2.2.6-3.1 0-.8 0-1.5-.3-2.3l-15.6-57.3h10.4z"/></g><path d="m60.6998 35.4 12.9-22.5-12.9-12.9-12.9 12.9z" fill="#8ba8d3"/><path d="m92.0002 31.3003-16.8 29.4 16.8 29.5 29.3998-29.5z" fill="#1c5ba3"/><path d="m60.6998 86-12.9 22.6 12.9 12.8 12.9-12.8z" fill="#8ba8d3"/><path d="m46.3 60.7003-16.8-29.4-29.5 29.4 29.5 29.5z" fill="#0c69b0"/></svg>